<svg xmlns:xlink="http://www.w3.org/1999/xlink"  xmlns="http://www.w3.org/2000/svg" width="135" height="40" fill="none" viewBox="0 0 135 40" class="SvgIcon_root__AnyvP Footer_markets_marketIco__JCiOI SvgIcon_size_20__yOxOn"><g fill="#fff" clip-path="url(#clip0_8495_400)"><path d="M134.992 8.589c0-.307 0-.614-.004-.92a13.57 13.57 0 0 0-.185-2.003 6.648 6.648 0 0 0-.619-1.903 6.474 6.474 0 0 0-2.799-2.8 6.785 6.785 0 0 0-1.908-.627c-.662-.11-1.33-.17-2-.177-.305-.005-.618-.01-.922-.013-.36-.002-.725-.002-1.084-.002H9.535c-.367 0-.73 0-1.095.002-.306.002-.61.007-.919.012C6.85.166 6.18.225 5.517.335a6.665 6.665 0 0 0-1.9.627A6.437 6.437 0 0 0 .193 5.665a13.005 13.005 0 0 0-.179 2.002c-.01.307-.01.614-.015.92v23.115c.005.31.006.611.015.922.008.671.068 1.34.18 2.002.11.663.32 1.305.624 1.904.303.599.701 1.144 1.179 1.615.472.477 1.019.875 1.618 1.178a6.7 6.7 0 0 0 1.901.631c.663.11 1.333.168 2.004.177.31.007.613.01.919.01.366.003.728.003 1.095.003H125.47l1.084-.001c.304 0 .617-.004.922-.01.67-.01 1.338-.068 2-.178a6.815 6.815 0 0 0 1.908-.63 6.293 6.293 0 0 0 1.617-1.18 6.405 6.405 0 0 0 1.182-1.614c.302-.6.51-1.241.619-1.904.111-.662.173-1.33.185-2.002.004-.31.004-.611.004-.922.008-.363.008-.724.008-1.093V9.68c0-.365 0-.729-.008-1.091Zm-.865 22.02c0 .364 0 .718-.008 1.076 0 .325 0 .623-.004.93-.011.62-.069 1.24-.171 1.853a5.716 5.716 0 0 1-.54 1.67c-.263.512-.606.98-1.015 1.386a5.414 5.414 0 0 1-1.4 1.022 5.849 5.849 0 0 1-1.668.55c-.618.1-1.242.155-1.869.163-.293.007-.599.01-.897.01l-1.084.003-117.026-.003c-.305 0-.602-.004-.905-.011a12.695 12.695 0 0 1-1.869-.163 5.88 5.88 0 0 1-1.656-.548 5.406 5.406 0 0 1-1.397-1.017 5.32 5.32 0 0 1-1.02-1.396 5.72 5.72 0 0 1-.544-1.657 12.428 12.428 0 0 1-.166-1.875 92.11 92.11 0 0 1-.015-.913V8.588s.009-.691.015-.895c.007-.627.063-1.253.165-1.872a5.756 5.756 0 0 1 .544-1.662 5.568 5.568 0 0 1 4.07-2.964c.62-.102 1.248-.156 1.876-.164l.902-.012H126.55l.913.013c.623.008 1.244.062 1.858.163a5.941 5.941 0 0 1 1.671.548 5.594 5.594 0 0 1 2.415 2.42 5.74 5.74 0 0 1 .535 1.649c.104.624.162 1.254.174 1.887.003.283.003.587.003.89.008.375.008.732.008 1.092v20.928Z"></path><path d="M32.438 20.3a4.949 4.949 0 0 1 2.356-4.151 5.066 5.066 0 0 0-3.99-2.158c-1.68-.176-3.308 1.005-4.164 1.005-.872 0-2.19-.988-3.608-.958a5.315 5.315 0 0 0-4.473 2.727c-1.934 3.349-.491 8.27 1.361 10.977.927 1.325 2.01 2.805 3.428 2.753 1.387-.058 1.905-.885 3.58-.885 1.658 0 2.144.885 3.59.852 1.489-.025 2.426-1.332 3.32-2.67a10.963 10.963 0 0 0 1.52-3.092 4.782 4.782 0 0 1-2.92-4.4ZM29.707 12.21a4.873 4.873 0 0 0 1.115-3.49 4.958 4.958 0 0 0-3.208 1.66 4.636 4.636 0 0 0-1.143 3.361 4.099 4.099 0 0 0 3.236-1.53ZM49.973 27.14h-4.734l-1.136 3.356h-2.005l4.483-12.418h2.083l4.483 12.418H51.11l-1.136-3.356Zm-4.243-1.55h3.752l-1.85-5.447h-.052l-1.85 5.448ZM62.83 25.97c0 2.813-1.507 4.62-3.78 4.62a3.07 3.07 0 0 1-2.848-1.583h-.043v4.484h-1.858V21.442H56.1v1.506h.034a3.212 3.212 0 0 1 2.883-1.6c2.297 0 3.812 1.816 3.812 4.622Zm-1.911 0c0-1.833-.947-3.038-2.393-3.038-1.42 0-2.375 1.23-2.375 3.038 0 1.824.955 3.046 2.375 3.046 1.446 0 2.393-1.197 2.393-3.046ZM72.794 25.97c0 2.813-1.506 4.62-3.778 4.62a3.07 3.07 0 0 1-2.849-1.583h-.043v4.484h-1.858V21.442h1.798v1.506h.035a3.212 3.212 0 0 1 2.882-1.6c2.298 0 3.813 1.816 3.813 4.622Zm-1.91 0c0-1.833-.948-3.038-2.393-3.038-1.42 0-2.375 1.23-2.375 3.038 0 1.824.955 3.046 2.375 3.046 1.445 0 2.393-1.197 2.393-3.046ZM79.379 27.036c.138 1.231 1.334 2.04 2.969 2.04 1.566 0 2.693-.809 2.693-1.919 0-.964-.68-1.54-2.289-1.936l-1.61-.388c-2.28-.55-3.338-1.617-3.338-3.348 0-2.142 1.867-3.614 4.518-3.614 2.624 0 4.423 1.472 4.484 3.614H84.93c-.113-1.239-1.137-1.987-2.634-1.987-1.497 0-2.522.757-2.522 1.858 0 .878.655 1.395 2.255 1.79l1.368.336c2.548.603 3.607 1.626 3.607 3.443 0 2.323-1.85 3.778-4.794 3.778-2.754 0-4.613-1.42-4.733-3.667h1.902ZM91.016 19.3v2.142h1.721v1.472h-1.721v4.991c0 .776.344 1.137 1.101 1.137.205-.004.409-.018.611-.043v1.463c-.34.064-.686.092-1.032.086-1.833 0-2.548-.689-2.548-2.444v-5.19h-1.316v-1.472h1.316V19.3h1.868ZM93.734 25.97c0-2.849 1.678-4.639 4.294-4.639 2.625 0 4.295 1.79 4.295 4.639 0 2.856-1.661 4.638-4.295 4.638-2.633 0-4.294-1.782-4.294-4.638Zm6.696 0c0-1.954-.896-3.108-2.402-3.108-1.506 0-2.4 1.162-2.4 3.108 0 1.962.894 3.106 2.4 3.106 1.506 0 2.402-1.144 2.402-3.106ZM103.855 21.442h1.773v1.541h.043a2.16 2.16 0 0 1 2.178-1.635c.214-.001.427.022.636.069v1.738a2.594 2.594 0 0 0-.835-.112 1.873 1.873 0 0 0-1.936 2.083v5.37h-1.859v-9.054ZM117.054 27.837c-.25 1.643-1.851 2.771-3.899 2.771-2.634 0-4.268-1.764-4.268-4.595 0-2.84 1.643-4.682 4.19-4.682 2.505 0 4.08 1.72 4.08 4.466v.637h-6.394v.112a2.358 2.358 0 0 0 2.435 2.564 2.049 2.049 0 0 0 2.091-1.273h1.765Zm-6.283-2.702h4.527a2.177 2.177 0 0 0-2.221-2.298 2.292 2.292 0 0 0-2.306 2.278v.02ZM45.495 8.731a2.64 2.64 0 0 1 2.808 2.965c0 1.906-1.03 3.002-2.808 3.002H43.34V8.73h2.155Zm-1.228 5.123h1.124a1.876 1.876 0 0 0 1.968-2.146 1.881 1.881 0 0 0-1.968-2.134h-1.124v4.28ZM49.35 12.444a2.133 2.133 0 1 1 4.247 0 2.134 2.134 0 1 1-4.247 0Zm3.333 0c0-.976-.439-1.547-1.208-1.547-.773 0-1.207.571-1.207 1.547 0 .984.434 1.55 1.207 1.55.77 0 1.208-.57 1.208-1.55ZM59.242 14.698h-.922l-.93-3.317h-.07l-.927 3.317h-.913l-1.242-4.503h.902l.806 3.436h.067l.925-3.436h.853l.926 3.436h.07l.803-3.436h.888l-1.236 4.503ZM61.523 10.195h.856v.715h.066c.231-.527.771-.849 1.344-.802a1.465 1.465 0 0 1 1.559 1.675v2.915h-.889v-2.692c0-.724-.315-1.084-.972-1.084a1.033 1.033 0 0 0-1.075 1.141v2.635h-.889v-4.503ZM66.762 8.437h.888v6.26h-.888v-6.26ZM68.885 12.444a2.133 2.133 0 1 1 4.248 0 2.134 2.134 0 1 1-4.248 0Zm3.333 0c0-.976-.439-1.547-1.208-1.547-.773 0-1.207.571-1.207 1.547 0 .984.435 1.55 1.207 1.55.77 0 1.208-.57 1.208-1.55ZM74.07 13.424c0-.81.604-1.277 1.675-1.344l1.22-.07v-.389c0-.476-.315-.744-.922-.744-.496 0-.84.182-.939.5h-.86c.09-.773.818-1.269 1.84-1.269 1.129 0 1.765.562 1.765 1.513v3.077h-.855v-.633h-.07c-.291.462-.808.732-1.353.707a1.36 1.36 0 0 1-1.5-1.348Zm2.895-.384v-.377l-1.1.07c-.62.042-.901.253-.901.65 0 .405.351.64.835.64a1.061 1.061 0 0 0 1.166-.983ZM79.016 12.444c0-1.423.731-2.324 1.869-2.324a1.484 1.484 0 0 1 1.38.79h.067V8.437h.889v6.26h-.852v-.71h-.07a1.563 1.563 0 0 1-1.414.785c-1.146 0-1.87-.901-1.87-2.328Zm.918 0c0 .955.45 1.53 1.203 1.53.749 0 1.212-.583 1.212-1.526 0-.938-.468-1.53-1.212-1.53-.748 0-1.203.58-1.203 1.526ZM86.9 12.444a2.133 2.133 0 1 1 4.248 0 2.134 2.134 0 1 1-4.247 0Zm3.334 0c0-.976-.439-1.547-1.208-1.547-.773 0-1.207.571-1.207 1.547 0 .984.434 1.55 1.207 1.55.77 0 1.208-.57 1.208-1.55ZM92.34 10.195h.855v.715h.067c.23-.527.77-.849 1.344-.802a1.465 1.465 0 0 1 1.558 1.675v2.915h-.889v-2.692c0-.724-.314-1.084-.971-1.084a1.033 1.033 0 0 0-1.076 1.141v2.635h-.888v-4.503ZM101.183 9.074v1.141h.975v.749h-.975v2.315c0 .472.194.678.636.678.114 0 .227-.007.339-.02v.74a2.904 2.904 0 0 1-.483.046c-.989 0-1.382-.348-1.382-1.216v-2.543h-.715v-.749h.715V9.074h.89ZM103.375 8.437h.881v2.482h.07a1.385 1.385 0 0 1 1.373-.807 1.483 1.483 0 0 1 1.551 1.679v2.907h-.89V12.01c0-.72-.335-1.084-.962-1.084a1.053 1.053 0 0 0-1.134 1.142v2.63h-.889V8.437ZM112.429 13.482a1.828 1.828 0 0 1-1.951 1.303 2.044 2.044 0 0 1-2.08-2.325 2.077 2.077 0 0 1 2.076-2.352c1.253 0 2.009.856 2.009 2.27v.31h-3.18v.05a1.19 1.19 0 0 0 1.2 1.29 1.08 1.08 0 0 0 1.071-.546h.855Zm-3.126-1.451h2.275a1.087 1.087 0 0 0-1.109-1.167 1.152 1.152 0 0 0-1.166 1.137v.03Z"></path></g><defs><clipPath id="clip0_8495_400"><path fill="#fff" d="M0 0h135v40H0z"></path></clipPath></defs></svg>