<svg xmlns:xlink="http://www.w3.org/1999/xlink"  width="16" height="16" viewBox="0 0 16 16" fill="none" xmlns="http://www.w3.org/2000/svg" class="_root_1GwWf_rETN6 _size_16_1GwWf_rETN6"><path d="M11.8176 1.86762C11.5803 1.83296 11.3332 2.00909 11.3332 2.28559V3.99913H7.9999C7.91156 3.99788 7.82385 4.0142 7.74187 4.04714C7.65989 4.08009 7.58528 4.12899 7.52237 4.19102C7.45945 4.25305 7.4095 4.32697 7.3754 4.40847C7.3413 4.48998 7.32374 4.57745 7.32374 4.6658C7.32374 4.75415 7.3413 4.84161 7.3754 4.92312C7.4095 5.00462 7.45945 5.07854 7.52237 5.14057C7.58528 5.2026 7.65989 5.25151 7.74187 5.28445C7.82385 5.31739 7.91156 5.33371 7.9999 5.33246H11.3332V7.01866C11.3332 7.38666 11.7716 7.57859 12.0416 7.32725L14.5038 5.0447C14.7205 4.82804 14.7205 4.47621 14.5038 4.25955L12.0416 1.97699C11.9741 1.91433 11.8967 1.87917 11.8176 1.86762ZM2.66657 3.99913C2.29857 3.99913 1.9999 4.2978 1.9999 4.6658C1.9999 5.0338 2.29857 5.33246 2.66657 5.33246C3.03457 5.33246 3.33324 5.0338 3.33324 4.6658C3.33324 4.2978 3.03457 3.99913 2.66657 3.99913ZM5.33324 3.99913C4.96524 3.99913 4.66657 4.2978 4.66657 4.6658C4.66657 5.0338 4.96524 5.33246 5.33324 5.33246C5.70124 5.33246 5.9999 5.0338 5.9999 4.6658C5.9999 4.2978 5.70124 3.99913 5.33324 3.99913ZM4.18219 8.53429C4.1031 8.54584 4.02574 8.58099 3.95824 8.64366L1.496 10.9262C1.27933 11.1429 1.27933 11.4947 1.496 11.7114L3.95693 13.9939C4.2276 14.2453 4.66657 14.0533 4.66657 13.6853V11.9991H7.9999C8.08824 12.0004 8.17595 11.9841 8.25793 11.9511C8.33991 11.9182 8.41452 11.8693 8.47744 11.8072C8.54035 11.7452 8.59031 11.6713 8.62441 11.5898C8.6585 11.5083 8.67606 11.4208 8.67606 11.3325C8.67606 11.2441 8.6585 11.1566 8.62441 11.0751C8.59031 10.9936 8.54035 10.9197 8.47744 10.8577C8.41452 10.7957 8.33991 10.7468 8.25793 10.7138C8.17595 10.6809 8.08824 10.6645 7.9999 10.6658H4.66657V8.95225C4.66657 8.67576 4.41948 8.49963 4.18219 8.53429ZM10.6666 10.6658C10.2986 10.6658 9.9999 10.9645 9.9999 11.3325C9.9999 11.7005 10.2986 11.9991 10.6666 11.9991C11.0346 11.9991 11.3332 11.7005 11.3332 11.3325C11.3332 10.9645 11.0346 10.6658 10.6666 10.6658ZM13.3332 10.6658C12.9652 10.6658 12.6666 10.9645 12.6666 11.3325C12.6666 11.7005 12.9652 11.9991 13.3332 11.9991C13.7012 11.9991 13.9999 11.7005 13.9999 11.3325C13.9999 10.9645 13.7012 10.6658 13.3332 10.6658Z" fill="currentColor"></path></svg>