<svg xmlns:xlink="http://www.w3.org/1999/xlink"  xmlns="http://www.w3.org/2000/svg" width="20" height="20" fill="none" viewBox="0 0 20 20" class="SvgIcon_root__AnyvP SvgIcon_size_20__yOxOn"><path fill="currentColor" d="M10 0C4.486 0 0 4.486 0 10s4.486 10 10 10 10-4.486 10-10S15.514 0 10 0Zm0 1.5c.366 0 .738.152 1.146.528.409.376.823.973 1.177 1.744.285.62.495 1.416.688 2.228H6.989c.193-.812.403-1.607.688-2.228.354-.77.768-1.368 1.177-1.744.408-.376.78-.528 1.146-.528Zm-3.111.594c-.207.325-.4.672-.576 1.052-.38.829-.666 1.809-.887 2.854H2.498a8.496 8.496 0 0 1 4.39-3.906Zm6.222 0A8.496 8.496 0 0 1 17.502 6h-2.928c-.222-1.045-.507-2.025-.887-2.854a8.78 8.78 0 0 0-.576-1.052ZM1.874 7.5H5.23C5.128 8.316 5 9.116 5 10c0 .884.128 1.684.23 2.5H1.874a8.528 8.528 0 0 1 0-5Zm4.86 0h6.533c.111.807.233 1.61.233 2.5 0 .89-.122 1.693-.233 2.5H6.733c-.111-.807-.233-1.61-.233-2.5 0-.89.122-1.693.233-2.5Zm8.036 0h3.356a8.53 8.53 0 0 1 0 5h-3.357c.103-.816.231-1.616.231-2.5 0-.884-.128-1.684-.23-2.5ZM2.498 14h2.928c.221 1.045.507 2.025.887 2.854.175.38.369.727.576 1.052A8.496 8.496 0 0 1 2.498 14Zm4.491 0h6.022c-.193.812-.403 1.607-.688 2.227-.354.772-.768 1.369-1.177 1.745-.408.375-.78.528-1.146.528-.366 0-.738-.152-1.146-.528-.409-.376-.823-.973-1.177-1.745-.285-.62-.495-1.415-.688-2.227Zm7.585 0h2.928a8.496 8.496 0 0 1-4.39 3.906c.206-.325.4-.672.575-1.052.38-.829.665-1.809.887-2.854Z"></path></svg>