<svg xmlns:xlink="http://www.w3.org/1999/xlink"  xmlns="http://www.w3.org/2000/svg" width="135" height="40" fill="none" viewBox="0 0 135 40" class="SvgIcon_root__AnyvP Footer_markets_marketIco__JCiOI SvgIcon_size_20__yOxOn"><g fill="#fff" clip-path="url(#clip0_8495_383)"><path stroke="#fff" stroke-miterlimit="10" stroke-width="0.2" d="M47.418 10.243c0 .838-.248 1.505-.745 2.003-.56.592-1.294.888-2.204.888-.872 0-1.61-.302-2.213-.905-.604-.603-.904-1.346-.904-2.23 0-.882.3-1.625.904-2.228.603-.604 1.34-.905 2.213-.905.441 0 .857.078 1.248.235.391.156.713.377.964.662l-.553.552a1.865 1.865 0 0 0-.717-.523 2.36 2.36 0 0 0-.942-.189c-.654 0-1.207.227-1.66.68-.447.457-.67 1.03-.67 1.717s.223 1.26.67 1.718a2.255 2.255 0 0 0 1.66.678c.597 0 1.094-.167 1.491-.503.396-.335.626-.795.688-1.382h-2.18v-.72h2.908c.028.156.042.307.042.452ZM52.026 7v.737h-2.732V9.64h2.464v.721h-2.464v1.902h2.732V13h-3.503V7h3.503ZM55.28 7.737V13h-.772V7.737h-1.676V7h4.123v.737h-1.676ZM60.708 13h-.77V7h.77v6ZM64.127 7.737V13h-.771V7.737H61.68V7h4.123v.737h-1.676ZM74.491 10c0 .888-.296 1.631-.888 2.229-.598.603-1.33.905-2.196.905-.87 0-1.603-.302-2.195-.905-.592-.598-.888-1.34-.888-2.23 0-.888.296-1.63.888-2.228.592-.604 1.324-.905 2.195-.905.872 0 1.604.304 2.197.913.591.598.887 1.338.887 2.22Zm-5.38 0c0 .693.218 1.265.654 1.718.441.452.989.678 1.642.678.654 0 1.198-.226 1.635-.678.441-.447.662-1.02.662-1.718s-.22-1.271-.662-1.718c-.436-.452-.98-.679-1.635-.679-.653 0-1.201.227-1.642.68-.436.451-.654 1.025-.654 1.717ZM76.345 13h-.77V7h.938l2.916 4.667h.033l-.033-1.156V7h.771v6h-.805l-3.05-4.894h-.034l.034 1.156V13Z"></path><path d="M68.137 21.752c-2.352 0-4.27 1.788-4.27 4.253 0 2.448 1.918 4.253 4.27 4.253 2.352 0 4.27-1.805 4.27-4.253 0-2.465-1.918-4.253-4.27-4.253Zm0 6.83c-1.289 0-2.4-1.063-2.4-2.577 0-1.53 1.111-2.578 2.4-2.578s2.4 1.047 2.4 2.578c0 1.514-1.111 2.577-2.4 2.577Zm-9.313-6.83c-2.352 0-4.27 1.788-4.27 4.253 0 2.448 1.918 4.253 4.27 4.253 2.352 0 4.269-1.805 4.269-4.253 0-2.465-1.917-4.253-4.27-4.253Zm0 6.83c-1.29 0-2.4-1.063-2.4-2.577 0-1.53 1.11-2.578 2.4-2.578 1.289 0 2.4 1.047 2.4 2.578 0 1.514-1.111 2.577-2.4 2.577Zm-11.079-5.526v1.805h4.318c-.13 1.015-.468 1.756-.983 2.271-.628.629-1.611 1.321-3.335 1.321-2.658 0-4.736-2.142-4.736-4.8 0-2.659 2.078-4.801 4.736-4.801 1.434 0 2.481.564 3.254 1.288l1.273-1.272c-1.08-1.031-2.513-1.82-4.527-1.82-3.641 0-6.702 2.964-6.702 6.605 0 3.64 3.061 6.605 6.702 6.605 1.965 0 3.448-.645 4.608-1.853 1.192-1.192 1.562-2.867 1.562-4.22a5.88 5.88 0 0 0-.096-1.128h-6.074Zm45.308 1.402c-.354-.95-1.433-2.706-3.64-2.706-2.192 0-4.012 1.723-4.012 4.253 0 2.384 1.804 4.253 4.22 4.253 1.95 0 3.078-1.192 3.545-1.885l-1.45-.967c-.483.71-1.144 1.176-2.094 1.176s-1.627-.435-2.062-1.288l5.687-2.353-.194-.483Zm-5.8 1.418c-.048-1.643 1.273-2.481 2.224-2.481.74 0 1.369.37 1.578.902l-3.802 1.579ZM82.63 30h1.869V17.498h-1.87V30Zm-3.061-7.298h-.065c-.419-.5-1.224-.95-2.24-.95-2.126 0-4.075 1.868-4.075 4.269 0 2.384 1.95 4.237 4.076 4.237 1.015 0 1.82-.451 2.24-.967h.064v.612c0 1.628-.87 2.497-2.272 2.497-1.144 0-1.853-.821-2.142-1.514l-1.628.677c.468 1.127 1.708 2.513 3.77 2.513 2.191 0 4.044-1.289 4.044-4.43v-7.637h-1.772v.693Zm-2.143 5.88c-1.289 0-2.368-1.079-2.368-2.561 0-1.498 1.08-2.594 2.368-2.594 1.273 0 2.272 1.096 2.272 2.594 0 1.482-1 2.561-2.272 2.561ZM101.807 17.5h-4.471V30h1.866v-4.736h2.605c2.068 0 4.101-1.498 4.101-3.883s-2.033-3.882-4.101-3.882Zm.048 6.025h-2.653v-4.286h2.653c1.395 0 2.188 1.156 2.188 2.143 0 .969-.793 2.143-2.188 2.143Zm11.532-1.796c-1.351 0-2.75.596-3.329 1.914l1.656.692c.354-.692 1.014-.917 1.705-.917.965 0 1.946.58 1.962 1.609v.128c-.337-.193-1.061-.482-1.946-.482-1.785 0-3.602.98-3.602 2.814 0 1.673 1.463 2.75 3.104 2.75 1.254 0 1.946-.562 2.38-1.222h.064v.965h1.802v-4.793c0-2.22-1.657-3.457-3.796-3.457Zm-.225 6.852c-.611 0-1.464-.306-1.464-1.061 0-.965 1.062-1.335 1.978-1.335.821 0 1.207.176 1.705.418a2.261 2.261 0 0 1-2.219 1.978Zm10.583-6.578-2.14 5.42h-.064l-2.219-5.42h-2.011l3.329 7.575-1.897 4.214h1.946l5.13-11.79h-2.074ZM106.938 30h1.865V17.499h-1.865V30Z"></path><path d="M130 0H5C2.25 0 0 2.25 0 5v30c0 2.75 2.25 5 5 5h125c2.75 0 5-2.25 5-5V5c0-2.75-2.25-5-5-5Zm4.2 35c0 2.316-1.884 4.2-4.2 4.2H5A4.205 4.205 0 0 1 .8 35V5C.8 2.684 2.684.8 5 .8h125c2.316 0 4.2 1.884 4.2 4.2v30Z"></path><path d="M20.795 20 10.07 30.725l.002.007a2.875 2.875 0 0 0 4.236 1.734l.034-.02 11.984-6.915-.002-.001L20.795 20ZM31.488 17.5l-.01-.007-5.174-3-5.22 5.22-.053.053 5.294 5.763 5.146-2.97a2.878 2.878 0 0 0 .017-5.06Z"></path><path d="M10.07 9.277a2.83 2.83 0 0 0-.097.74v19.968c0 .256.033.504.098.739l10.405-11.043L10.07 9.277ZM20.771 19.418l5.534-4.925.001-.001-11.97-6.94a2.881 2.881 0 0 0-4.266 1.725l10.701 10.14Z"></path></g><defs><clipPath id="clip0_8495_383"><path fill="#fff" d="M0 0h135v40H0z"></path></clipPath></defs></svg>