<svg xmlns:xlink="http://www.w3.org/1999/xlink"  xmlns="http://www.w3.org/2000/svg" width="146" height="40" fill="none" viewBox="0 0 146 40" class="SvgIcon_root__AnyvP Logo_root__JwoAS Logo_white__LLOtX SvgIcon_size_20__yOxOn"><g id="logo_az1 2" clip-path="url(#clip0_4704_60670)"><path id="Vector" fill="#082E6A" d="M31.427 28.467c-2.074 6.282-7.997 10.83-14.965 10.83-8.69 0-15.76-7.069-15.76-15.758 0-8.69 7.07-15.76 15.76-15.76 2.645 0 5.139.659 7.33 1.815l.564-.496a16.36 16.36 0 0 0-7.895-2.021C7.385 7.077 0 14.46 0 23.539 0 32.615 7.384 40 16.462 40c7.373 0 13.63-4.873 15.719-11.568l-.754.035Z"></path><path id="Vector_2" fill="#0098DA" d="M5.914 28.611c9.503-.875 18.92-2.33 28.202-4.67l-.43 1.925c-11.875 2.706-20.159 2.956-27.772 2.745Z"></path><path id="Vector_3" fill="#0098DA" d="M7.426 27.668c8.901-1.398 18.015-3.613 27.374-6.779l-.44 1.97c-10.381 3.263-19.235 4.72-26.934 4.809Z"></path><path id="Vector_4" fill="#51C2E1" d="M8.876 26.664c8.73-2.176 17.619-5.223 26.617-8.87l-.444 1.982c-9.53 3.742-18.349 6.206-26.173 6.888Z"></path><path id="Vector_5" fill="#9FD7E0" d="M10.322 25.477c8.803-2.674 17.46-6.697 26.029-11.518l-.544 2.431c-10.263 5.095-18.958 8.359-25.485 9.087Z"></path><path id="Vector_6" fill="#51C2E1" d="M12.195 24.222c9.885-4.78 17.923-9.733 25.163-14.761l-.6 2.677c-8.21 5.24-16.403 9.582-24.563 12.084Z"></path><path id="Vector_7" fill="#0098DA" d="M13.636 22.669c9.719-6.145 18.15-12.395 24.969-18.779l-.732 3.27C29.809 14.12 21.555 18.913 13.636 22.67Z"></path><path id="Vector_8" fill="#0098DA" d="m39.16 0-2.75.071c-3.4 4.157-6.829 7.753-10.275 11.037-3.734 3.558-7.488 6.749-11.245 9.888C23.12 15.443 31.285 9.224 39.16 0Z"></path><path id="Vector_9" fill="#0098DA" d="M53.595 31.053H43.097v.59h10.498v-.59Z"></path><path id="Vector_10" fill="#0098DA" d="M145.267 31.053h-10.498v.59h10.498v-.59Z"></path><path id="Vector_11" fill="#082E6A" d="M57.4 30.416h4v-3.213c0-.565.794-.565.794 0v6.86c0 .578-.794.6-.794 0v-2.906h-4v2.907c0 .612-.783.54-.783 0v-6.861c0-.577.783-.541.783 0v3.213Z"></path><path id="Vector_12" fill="#082E6A" d="m66.901 28.012-1.718 3.706h3.425L66.9 28.012Zm-2.044 4.447-.88 1.858c-.196.435-.914.13-.718-.341l3.283-6.998a.382.382 0 0 1 .359-.224c.141 0 .272.07.348.223l3.272 6.963c.283.507-.522.8-.728.342l-.849-1.823h-4.087Z"></path><path id="Vector_13" fill="#082E6A" d="M70.172 27.348c-.21-.51.555-.842.777-.332l2.849 6.068 2.783-6.044c.177-.486.931-.225.765.308l-3.193 6.91c-.155.307-.554.378-.743-.036l-3.237-6.874Z"></path><path id="Vector_14" fill="#082E6A" d="m80.446 28.02-1.718 3.689h3.425l-1.707-3.689Zm-2.044 4.426-.88 1.85c-.197.433-.914.128-.718-.34l3.283-6.965a.381.381 0 0 1 .359-.223c.14 0 .271.07.348.223l3.272 6.93c.283.503-.522.796-.728.34l-.848-1.815h-4.088Z"></path><path id="Vector_15" fill="#082E6A" d="m90.111 31.403-2.8-3.962c-.33-.473.4-.91.698-.437l2.5 3.654 2.534-3.666c.276-.45.962-.071.664.425l-2.777 3.986v2.65a.414.414 0 0 1-.41.437c-.22 0-.409-.142-.409-.438v-2.649Z"></path><path id="Vector_16" fill="#082E6A" d="M95.22 30.55c0 1.92 1.21 3.139 2.789 3.139 1.512 0 2.755-1.171 2.755-3.139 0-1.51-.952-2.717-2.33-2.951a3.382 3.382 0 0 0-.974 0c-1.355.223-2.24 1.358-2.24 2.951Zm-.84-.035c0-1.838 1.187-3.408 2.968-3.7.415-.06.795-.047 1.187 0 1.725.28 3.057 1.78 3.057 3.7 0 2.436-1.68 3.981-3.583 3.981-2.016 0-3.628-1.498-3.628-3.981Z"></path><path id="Vector_17" fill="#082E6A" d="M103.214 34.505c-.302 0-.425-.155-.425-.443v-6.866c0-.562.828-.562.828 0v6.52h4.185c.571 0 .571.79 0 .79h-4.588Z"></path><path id="Vector_18" fill="#082E6A" d="M109.659 34.505c-.302 0-.425-.155-.425-.443v-6.866c0-.562.828-.562.828 0v6.52h4.185c.571 0 .571.79 0 .79h-4.588Z"></path><path id="Vector_19" fill="#082E6A" d="m118.775 28.017-1.718 3.698h3.425l-1.707-3.698Zm-2.044 4.438-.88 1.855c-.196.434-.913.13-.718-.34l3.283-6.986a.383.383 0 0 1 .359-.223c.141 0 .272.07.348.223l3.273 6.95c.282.505-.522.798-.729.34l-.848-1.82h-4.088Z"></path><path id="Vector_20" fill="#082E6A" d="M124.221 30.978h2.286c1.483 0 2.128-.734 2.105-1.637-.011-.987-.792-1.782-2.105-1.782h-2.286v3.42Zm0 .758v2.335c0 .554-.826.554-.826.013v-6.91c0-.252.17-.42.419-.42h2.682c1.958 0 2.954 1.179 2.954 2.587 0 1.216-.622 2.095-2.015 2.348l1.834 2.106c.43.457-.193.986-.566.578l-2.286-2.637h-2.196Z"></path><path id="Vector_21" fill="#082E6A" d="M130.808 27.19c0-.578.816-.567.816 0v6.91c0 .53-.816.554-.816 0v-6.91Z"></path><path id="Vector_22" fill="#082E6A" d="m48.533 14.359-2.535 5.263h5.054l-2.52-5.263Zm-3.017 6.316-1.3 2.64c-.288.619-1.348.184-1.059-.484l4.846-9.943c.097-.217.321-.317.53-.317.208 0 .401.1.513.317l4.83 9.893c.418.718-.77 1.137-1.075.485l-1.251-2.59h-6.034Z"></path><path id="Vector_23" fill="#082E6A" d="M56.814 22.417h6.852c.755 0 .77 1.144 0 1.196H55.74c-.625 0-.818-.537-.465-1.005l7.189-8.893h-6.5c-.705 0-.721-1.093 0-1.144h7.64c.657 0 .834.537.464 1.04l-7.253 8.806Z"></path><path id="Vector_24" fill="#082E6A" d="M77.324 18.582h3.242c2.102 0 3.017-1.045 2.985-2.33-.016-1.404-1.124-2.534-2.985-2.534h-3.242v4.864Zm0 1.078v3.323c0 .787-1.17.787-1.17.017v-9.83c0-.36.24-.6.593-.6h3.803c2.776 0 4.188 1.678 4.188 3.683 0 1.73-.882 2.98-2.856 3.34l2.6 2.996c.609.651-.273 1.404-.803.822l-3.242-3.75h-3.113Z"></path><path id="Vector_25" fill="#082E6A" d="M87.885 22.485h3.595c1.411 0 2.968-.4 2.968-2.153 0-1.372-1.091-1.962-2.487-1.962h-4.076v4.115Zm0-8.786v3.542h3.273c1.38 0 2.584-.399 2.584-1.667 0-1.492-1.637-1.875-2.632-1.875h-3.225Zm3.595 9.914h-4.173c-.32 0-.594-.277-.594-.625v-9.792c0-.348.273-.625.594-.625h3.803c1.493 0 3.803.538 3.803 3.003 0 .903-.4 1.702-1.235 2.067 1.171.399 1.973 1.285 1.973 2.69 0 2.588-2.15 3.282-4.171 3.282Z"></path><path id="Vector_26" fill="#082E6A" d="m101.911 14.359-2.535 5.263h5.055l-2.52-5.263Zm-3.017 6.316-1.3 2.64c-.289.619-1.347.184-1.059-.484l4.846-9.943c.097-.217.321-.317.53-.317.209 0 .401.1.513.317l4.831 9.893c.417.718-.77 1.137-1.075.485l-1.252-2.59h-6.034Z"></path><path id="Vector_27" fill="#082E6A" d="m129.679 14.359-2.536 5.263h5.055l-2.519-5.263Zm-3.017 6.316-1.3 2.64c-.289.619-1.348.184-1.059-.484l4.846-9.943c.096-.217.321-.317.529-.317.209 0 .402.1.514.317l4.83 9.893c.417.718-.77 1.137-1.075.485l-1.252-2.59h-6.033Z"></path><path id="Vector_28" fill="#082E6A" d="M143.914 13.16c0-.708 1.219-.741 1.219 0v9.68c0 .844-1.107.928-1.444.337l-6.001-8.449.128 2.328v5.953c0 .826-1.22.843-1.22 0v-9.663c0-.844.899-.978 1.3-.354l6.178 8.685-.16-2.547v-5.97Z"></path><path id="Vector_29" fill="#082E6A" d="M109.743 19.172 105.63 13.5c-.488-.678.585-1.304 1.024-.627l3.674 5.232 3.724-5.249c.406-.643 1.414-.101.976.61l-4.082 5.706v3.793a.6.6 0 0 1-.601.627c-.326 0-.602-.204-.602-.627v-3.793Z"></path><path id="Vector_30" fill="#082E6A" d="M122.423 23.012c-.769.367-1.633.6-2.402.6-2.738 0-5.204-2.334-5.204-5.636 0-2.734 1.874-4.902 4.339-5.303 1.874-.266 3.507.218 4.772 1.601.48.567-.384 1.25-.833.75-1.088-1.2-2.353-1.383-3.762-1.216-1.97.317-3.363 1.767-3.363 4.185 0 2.535 1.873 4.468 4.083 4.468.593 0 1.249-.166 1.858-.483a4.125 4.125 0 0 0 1.313-1.117c.368-.567 1.345.05.928.667-.432.634-1.041 1.134-1.729 1.484Z"></path><path id="Vector_31" fill="#082E6A" d="M70.044 22.476c-.597 0-1.258-.168-1.87-.487a4.239 4.239 0 0 1-.97-.727c-.636-.66-1.088-1.606-1.209-2.602h8.108c-.302 2.207-2.039 3.816-4.06 3.816Zm.903-9.855c-1.887-.269-3.531.218-4.805 1.611-.483.572.387 1.26.839.756 1.096-1.209 2.37-1.394 3.788-1.226 1.89.304 3.25 1.647 3.374 3.88l-8.557-.016c-.656 0-.841.412-.81.779v-.017c.122 2.054 1.188 3.595 2.344 4.323a5.1 5.1 0 0 0 .538.319c.774.369 1.644.604 2.418.604 2.757 0 5.24-2.35 5.24-5.675 0-2.753-1.887-4.935-4.37-5.338Z"></path></g><defs><clipPath id="clip0_4704_60670"><path fill="#fff" d="M0 0h145.267v40H0z"></path></clipPath></defs></svg>