<svg xmlns:xlink="http://www.w3.org/1999/xlink"  xmlns="http://www.w3.org/2000/svg" width="90" height="30" fill="none" viewBox="0 0 90 30" class="SvgIcon_root__AnyvP Footer_dxpMobile__8HN49 SvgIcon_size_20__yOxOn"><g fill="#fff" clip-path="url(#clip0_3552_64107)" opacity="0.7"><path d="M60.889 6.439c.133.35.333.657.578.898.244.24.533.438.866.569.334.131.712.197 1.111.197.445 0 .823-.066 1.178-.219.356-.153.667-.35.911-.613a2.82 2.82 0 0 0 .578-.92c.133-.35.2-.744.2-1.16 0-.373-.067-.723-.178-1.073a2.482 2.482 0 0 0-.533-.942c-.244-.285-.555-.504-.956-.679-.4-.175-.844-.263-1.4-.263-.51 0-.977.088-1.422.241-.444.154-.778.35-1.044.548l.444.766c.267-.197.578-.35.934-.46.355-.11.71-.175 1.066-.175.311 0 .6.044.822.131.245.088.423.198.6.35.178.154.29.33.378.504.09.198.156.395.2.614h-4.555c0 .065-.023.153-.023.219v.284c.023.416.09.832.245 1.183Zm4.378-.854c-.045.24-.111.438-.222.635a1.834 1.834 0 0 1-.4.503c-.156.132-.334.241-.534.329-.2.087-.422.131-.667.131-.466 0-.844-.131-1.177-.416-.311-.284-.49-.679-.534-1.182h3.534ZM59.422 0H58.4v7.949h1.022V0ZM67.911 5.978c0 .657.156 1.182.445 1.555.288.372.755.569 1.377.569.267 0 .534-.044.8-.11.267-.087.511-.197.712-.35l-.378-.788c-.156.11-.311.175-.49.24a1.514 1.514 0 0 1-.532.088c-.334 0-.578-.11-.712-.306-.133-.198-.2-.482-.2-.81V3.174h2.023V2.32h-2.023V.328h-1.022v1.993H66.89v.854h1.022v2.803ZM49.267 1.49a.71.71 0 0 0 .51-.197.705.705 0 0 0 .2-.526.688.688 0 0 0-.2-.504.71.71 0 0 0-.51-.197c-.2 0-.378.066-.534.197a.63.63 0 0 0-.222.504c0 .22.067.394.222.526.134.131.312.197.534.197ZM54.956 7.948l2.533-5.628h-1.133l-1.734 4.227-1.755-4.227h-1.134l2.512 5.628h.71ZM43.911 11.562c0 .219.067.394.222.526a.803.803 0 0 0 .534.197.71.71 0 0 0 .51-.197.705.705 0 0 0 .2-.526.689.689 0 0 0-.2-.504.71.71 0 0 0-.51-.197c-.2 0-.378.066-.534.197a.63.63 0 0 0-.222.504ZM46 7.226c.267.263.578.482.956.635.377.154.777.241 1.222.241.444 0 .844-.087 1.2-.24a2.9 2.9 0 0 0 .956-.636c.266-.262.466-.569.622-.941.155-.373.222-.745.222-1.16 0-.417-.067-.79-.222-1.14a3.038 3.038 0 0 0-.623-.941 2.9 2.9 0 0 0-.955-.635 3.085 3.085 0 0 0-1.2-.241c-.422 0-.844.088-1.222.24a2.902 2.902 0 0 0-.956.636 2.8 2.8 0 0 0-.622.941c-.156.35-.222.745-.222 1.14 0 .415.066.787.222 1.16a2.8 2.8 0 0 0 .622.941Zm.334-2.868c.11-.241.244-.46.422-.635a2.11 2.11 0 0 1 .622-.438c.244-.11.511-.175.778-.175.266 0 .533.065.778.175.244.11.444.263.622.438s.31.394.422.635c.111.24.155.503.155.788 0 .285-.044.548-.155.788-.111.241-.245.46-.422.657a2.112 2.112 0 0 1-.622.438c-.245.11-.512.175-.778.175-.29 0-.534-.065-.778-.175a2.11 2.11 0 0 1-.622-.438 2.237 2.237 0 0 1-.422-.657 1.853 1.853 0 0 1-.156-.788c0-.285.067-.547.156-.788ZM47.133 1.49a.71.71 0 0 0 .512-.197.705.705 0 0 0 .2-.526.688.688 0 0 0-.2-.504.71.71 0 0 0-.512-.197c-.2 0-.377.066-.533.197a.708.708 0 0 0-.222.504c0 .22.067.394.222.526a.803.803 0 0 0 .533.197ZM42.022 7.687A3.308 3.308 0 0 0 43.2 6.92c.311-.328.556-.744.733-1.226a4.557 4.557 0 0 0 .267-1.599c0-.59-.089-1.138-.244-1.62-.178-.482-.4-.898-.734-1.226A3.359 3.359 0 0 0 42.067.46a4.12 4.12 0 0 0-1.511-.284h-2.934v7.773h2.822c.6 0 1.112-.087 1.578-.262ZM38.69 1.183h1.8c.422 0 .8.066 1.111.22.311.152.6.35.8.612.222.263.378.57.489.898.111.35.155.723.155 1.139 0 .416-.044.788-.155 1.138-.111.35-.267.657-.489.92-.222.263-.489.46-.8.613-.311.154-.689.22-1.111.22h-1.8v-5.76ZM45.156 13.096h-1.023v5.627h1.023v-5.627ZM87.045 12.941c-.378 0-.712.088-.978.241-.267.154-.49.416-.667.745v-.832h-.978v5.627h1.023v-2.978c0-.306.044-.59.133-.81.089-.24.2-.416.333-.57.156-.153.311-.262.511-.328.178-.065.4-.11.6-.11.2 0 .4.045.6.088l.09-.985a1.02 1.02 0 0 0-.356-.066c-.09-.022-.2-.022-.311-.022ZM70.222 23.848H69.2v5.627h1.022v-5.627ZM69.556 15.92c0-.373-.067-.723-.178-1.074a2.482 2.482 0 0 0-.534-.941c-.244-.285-.555-.504-.955-.68-.378-.175-.844-.262-1.4-.262-.511 0-.978.088-1.422.24-.445.154-.778.351-1.045.548l.445.767c.266-.197.578-.35.933-.46.356-.11.711-.175 1.044-.175.312 0 .6.043.823.131a1.6 1.6 0 0 1 .6.35c.155.154.289.329.377.504.09.197.156.394.2.613H63.89c0 .066-.022.153-.022.22 0 .087-.023.174-.023.284 0 .46.067.854.2 1.204.134.35.334.657.578.898.245.24.534.438.867.57.333.13.711.196 1.111.196.445 0 .822-.065 1.178-.219.355-.153.666-.35.91-.613.245-.262.445-.57.579-.941.2-.35.289-.745.289-1.16Zm-1.311 1.072a1.834 1.834 0 0 1-.4.504c-.156.131-.334.263-.534.328-.2.088-.422.132-.667.132-.466 0-.844-.132-1.177-.416-.334-.285-.49-.68-.534-1.183h3.534a1.673 1.673 0 0 1-.222.635ZM73.622 17.846a1.513 1.513 0 0 1-.533.088c-.333 0-.578-.11-.711-.307s-.2-.482-.2-.81v-2.869H74.2v-.854h-2.022v-1.992h-1.022v1.992h-1.023v.854h1.023v2.803c0 .657.155 1.183.444 1.555.29.372.756.57 1.378.57.267 0 .533-.045.8-.11.267-.088.511-.197.711-.35l-.378-.789c-.155.066-.333.153-.489.22ZM67.622 21.525H66.6v7.95h1.022v-7.95ZM82.511 13.883c-.244-.285-.555-.504-.955-.679-.4-.175-.845-.263-1.4-.263-.511 0-.978.088-1.423.241-.444.154-.777.35-1.044.548l.444.766c.267-.197.578-.35.934-.46.355-.11.71-.175 1.066-.175.312 0 .6.044.823.131.244.088.422.198.6.35.155.154.289.33.377.505.09.197.156.394.2.613h-4.555c0 .065-.022.153-.022.219v.284c0 .46.066.854.2 1.205.133.35.333.657.577.898.245.24.534.437.867.569.333.131.711.197 1.111.197.445 0 .822-.066 1.178-.22.356-.152.667-.35.911-.612.245-.263.445-.57.578-.942.133-.35.2-.744.2-1.16 0-.373-.067-.723-.178-1.073a1.931 1.931 0 0 0-.489-.942Zm-.578 3.11a1.834 1.834 0 0 1-.4.503c-.155.132-.333.263-.533.329-.2.087-.422.131-.667.131-.466 0-.844-.131-1.177-.416-.311-.285-.49-.679-.534-1.182h3.534a2.164 2.164 0 0 1-.223.634ZM89.622 11.058a.71.71 0 0 0-.51-.197c-.2 0-.378.066-.534.197a.63.63 0 0 0-.222.504c0 .219.066.394.222.526a.803.803 0 0 0 .533.197.71.71 0 0 0 .511-.197.705.705 0 0 0 .2-.526.552.552 0 0 0-.2-.504ZM76.334 10.752H75.31v7.949h1.022v-7.949ZM64.022 24.678a2.293 2.293 0 0 0-.889-.7A2.399 2.399 0 0 0 62 23.715c-.422 0-.8.066-1.133.219-.356.153-.645.35-.911.613-.267.263-.445.57-.6.92a3.27 3.27 0 0 0-.223 1.16c0 .416.067.81.223 1.183.133.372.333.679.6.941a2.84 2.84 0 0 0 2.044.876c.422 0 .8-.087 1.133-.24.334-.154.623-.395.89-.701v.81H65v-5.628h-.978v.81Zm-.066 2.76c-.09.24-.223.46-.4.656a2.112 2.112 0 0 1-.622.438c-.245.11-.512.154-.823.154-.289 0-.578-.066-.8-.154a2.113 2.113 0 0 1-.622-.438 1.645 1.645 0 0 1-.4-.657 2.26 2.26 0 0 1-.133-.788c0-.285.044-.525.133-.788.089-.241.222-.46.4-.635.178-.175.378-.329.622-.438a1.967 1.967 0 0 1 1.622 0c.245.11.445.263.623.438s.31.394.4.635c.089.24.133.503.133.788 0 .285-.044.548-.133.788ZM89.622 13.096H88.6v5.627h1.022v-5.627ZM43.2 10.95h-1.289l-1.91 3.021-1.912-3.022h-1.222l2.489 3.832-2.623 3.942H38l2-3.088 1.978 3.088h1.244L40.6 14.78l2.6-3.832ZM48.733 24.59a2.9 2.9 0 0 0-.955-.634 3.17 3.17 0 0 0-2.422 0 2.901 2.901 0 0 0-.956.635 2.8 2.8 0 0 0-.622.941c-.156.35-.222.745-.222 1.139 0 .416.066.81.222 1.16.155.351.355.68.622.942.267.263.578.482.956.635.377.154.777.241 1.222.241.444 0 .844-.087 1.2-.24a2.9 2.9 0 0 0 .955-.636c.267-.262.467-.591.623-.941.155-.35.222-.745.222-1.161 0-.416-.067-.788-.222-1.139a2.8 2.8 0 0 0-.623-.941Zm-.333 2.848c-.111.24-.244.46-.422.656a2.113 2.113 0 0 1-.622.438c-.245.11-.511.154-.778.154s-.533-.066-.778-.154a2.113 2.113 0 0 1-.622-.438 2.236 2.236 0 0 1-.422-.657 1.854 1.854 0 0 1-.156-.788c0-.285.045-.525.156-.788.11-.241.244-.46.422-.635s.378-.329.622-.438c.245-.11.511-.175.778-.175.289 0 .533.065.778.175.244.11.444.263.622.438s.311.394.422.635c.111.24.156.503.156.788 0 .285-.067.548-.156.788ZM42.2 22.467a2.343 2.343 0 0 0-.8-.547c-.311-.132-.689-.197-1.133-.197h-2.623v7.773h1.067v-3h1.467c.467 0 .844-.065 1.178-.197.333-.131.6-.306.822-.547.222-.22.378-.482.489-.767.11-.284.155-.59.155-.897 0-.285-.044-.592-.155-.876a1.914 1.914 0 0 0-.467-.745Zm-.533 2.146a1.248 1.248 0 0 1-.29.46c-.133.131-.288.24-.488.328-.2.088-.445.132-.711.132h-1.489v-2.825h1.622c.245 0 .445.044.622.11.178.087.334.175.445.306.111.132.2.285.267.438.066.175.088.35.088.526.023.175-.022.35-.066.525ZM51.245 17.934v.789h1.022v-7.971h-1.022v3.153a2.649 2.649 0 0 0-.867-.7 2.399 2.399 0 0 0-1.133-.263c-.423 0-.8.087-1.134.24a2.95 2.95 0 0 0-.91.636c-.267.262-.468.569-.6.941-.134.35-.223.745-.223 1.139 0 .416.067.81.222 1.16.133.373.334.68.6.942.267.263.556.482.911.635.356.153.734.241 1.156.241.4 0 .778-.088 1.11-.24.334-.176.623-.395.868-.702Zm-1.067-.175c-.244.11-.511.154-.822.154-.311 0-.578-.066-.823-.154a2.11 2.11 0 0 1-.622-.438 2.18 2.18 0 0 1-.4-.657 2.26 2.26 0 0 1-.133-.788c0-.263.044-.525.133-.766.09-.241.222-.46.4-.635a2.11 2.11 0 0 1 .622-.438c.245-.11.512-.154.823-.154.289 0 .578.066.822.154.244.11.444.262.622.438.178.175.311.394.4.635.089.24.133.503.133.766 0 .285-.044.548-.133.788-.089.241-.222.46-.4.657a1.775 1.775 0 0 1-.622.438ZM53.4 23.693c-.378 0-.711.088-.978.241-.266.153-.489.416-.666.745v-.832h-.978v5.627H51.8v-2.978c0-.306.044-.591.133-.81.09-.24.2-.416.334-.57.155-.153.31-.262.51-.328.2-.065.4-.11.6-.11.2 0 .4.023.6.088l.09-.985a1.02 1.02 0 0 0-.356-.066c-.089 0-.2-.022-.31-.022ZM57.822 28.598a1.514 1.514 0 0 1-.533.088c-.333 0-.578-.11-.711-.307s-.2-.482-.2-.81V24.7H58.4v-.854h-2.022v-1.992h-1.044v1.992H54.31v.854h1.023v2.803c0 .657.155 1.183.444 1.555.289.372.755.57 1.378.57.266 0 .533-.045.8-.11.266-.088.51-.197.71-.35l-.377-.789c-.133.088-.311.153-.467.219ZM59.711 13.992c.178-.087.4-.13.622-.13.423 0 .756.13 1 .415.245.285.378.679.378 1.227V18.7h1.022v-3.329c0-.372-.044-.7-.155-1.007a2.231 2.231 0 0 0-.467-.767 1.945 1.945 0 0 0-.711-.481c-.289-.11-.6-.176-.933-.176-.445 0-.867.088-1.245.285-.378.197-.644.438-.844.766-.156-.35-.4-.613-.733-.788a2.26 2.26 0 0 0-1.067-.263 1.97 1.97 0 0 0-1.022.263 1.865 1.865 0 0 0-.712.723v-.832h-1v5.627h1.023V15.57c0-.263.044-.504.11-.7.09-.198.179-.395.312-.526.133-.153.289-.263.489-.35.2-.088.4-.132.622-.132.422 0 .756.153 1.022.438.245.307.378.7.378 1.226v3.176h1.022v-3.154c0-.263.045-.482.111-.679.067-.197.178-.372.312-.525.133-.153.288-.263.466-.35ZM27.711 12.264v-.373h-5.089c-.222-3.481-3.577-6.24-7.666-6.24-4.09 0-7.445 2.759-7.667 6.24H2.2V15.592H.556v14.015h11.977V23.19h4.868V29.607h11.977V15.592h-1.645v-3.329h-.022ZM7.578 26.848H3.489v-3.285h4.089v3.285Zm0-6.022H3.489v-3.307h4.089v3.307Zm9.422 0h-4.089v-3.307h4.09v3.307Zm9.422 6.021h-4.089v-3.284h4.09v3.285Zm0-6.021h-4.089v-3.307h4.09v3.307ZM19.867.459h-4.823V3.766h4.823V.459Z"></path></g><defs><clipPath id="clip0_3552_64107"><path fill="#fff" d="M0 0h90v30H0z"></path></clipPath></defs></svg>