<svg xmlns:xlink="http://www.w3.org/1999/xlink"  xmlns="http://www.w3.org/2000/svg" width="201" height="33" fill="none" viewBox="0 0 201 33" class="SvgIcon_root__AnyvP Footer_skillRowMobile__rISaS SvgIcon_size_20__yOxOn"><g fill="#fff" clip-path="url(#clip0_4468_44965)"><path d="M25.84 15.64c0 7.019-5.775 12.69-12.92 12.69S0 22.66 0 15.64C0 8.624 5.775 2.95 12.92 2.95s12.92 5.673 12.92 12.69Z" opacity="0.2"></path><path d="M25.84 26.325V4.927c0-3.524-5.192-1.031-6.475-.287-3.82 2.206-6.474 6.303-6.474 11 0 4.698 2.683 8.88 6.474 11 1.342.745 6.475 3.237 6.475-.315ZM159.033 4.64c1.224 0 2.187-.916 2.187-2.12 0-1.202-.992-2.148-2.187-2.148a2.14 2.14 0 0 0-2.159 2.149c-.029 1.174.934 2.12 2.159 2.12ZM52.321 19.308c-1.109 1.461-2.83 2.292-4.492 2.292-3.179 0-5.453-2.435-5.453-5.328 0-2.808 2.1-5.328 5.278-5.328a5.939 5.939 0 0 1 4.666 2.291v6.073Zm-.7-10.255a8.595 8.595 0 0 0-4.288-1.117c-4.724 0-8.545 3.753-8.545 8.393 0 4.64 3.82 8.393 8.546 8.393a8.76 8.76 0 0 0 4.287-1.117c.874.487 4.287 2.149 4.287-.2V9.253c-.03-2.35-3.442-.688-4.287-.2Zm89.067 10.255c-1.108 1.461-2.829 2.292-4.491 2.292-3.179 0-5.454-2.435-5.454-5.328 0-2.808 2.1-5.328 5.279-5.328a5.938 5.938 0 0 1 4.666 2.291v6.073Zm-.729-10.255a8.594 8.594 0 0 0-4.287-1.117c-4.725 0-8.545 3.753-8.545 8.393 0 4.64 3.82 8.393 8.545 8.393a8.757 8.757 0 0 0 4.287-1.117c.875.487 4.287 2.149 4.287-.2V9.253c0-2.35-3.412-.688-4.287-.2Zm37.768 10.255c-1.108 1.461-2.829 2.292-4.491 2.292-3.179 0-5.454-2.435-5.454-5.328 0-2.808 2.1-5.328 5.279-5.328a5.94 5.94 0 0 1 4.666 2.291v6.073Zm-.7-10.255a8.594 8.594 0 0 0-4.287-1.117c-4.725 0-8.545 3.753-8.545 8.393 0 4.64 3.82 8.393 8.545 8.393a8.76 8.76 0 0 0 4.287-1.117c.875.487 4.287 2.149 4.287-.2V9.253c0-2.35-3.412-.688-4.287-.2Zm-97.642 5.185h8.953c-.495-2.063-2.391-3.495-4.345-3.495-2.13 0-4.054 1.404-4.608 3.495Zm-.03 2.75c.176 2.721 2.45 4.87 5.309 4.87 1.662 0 2.8-.544 3.645-1.203.671-.516 1.663-.459 2.275.114l.962.888c-1.224 1.547-3.558 3.008-6.912 3.008-4.782 0-8.836-3.552-8.836-8.393 0-4.841 3.704-8.393 8.34-8.393 4.58 0 7.904 3.638 7.904 8.393 0 .143 0 .372-.029.687l-12.657.029Zm109.133-7.219c.875-.83 2.538-1.89 4.929-1.89 4.346 0 7.583 2.377 7.583 8.565v6.273c0 .888-.729 1.604-1.633 1.604h-1.954V16.3c0-3.495-1.838-5.329-4.258-5.329-2.158 0-3.558 1.146-4.55 2.292v9.482c0 .888-.729 1.604-1.633 1.604h-1.954V9.826c0-.889.729-1.605 1.633-1.605h1.837v1.547Zm-124.21 11.66 8.282-10.199a3.417 3.417 0 0 0 .759-2.177v-.83H61.916c-.904 0-1.75.658-1.75 1.518v2.463h.904c.67 0 1.225-.43 1.458-1.088h6.125L60.399 21.34a3.396 3.396 0 0 0-.758 2.149v.859h12.54c.963 0 1.78-.773 1.78-1.747v-1.175h-9.683ZM150.517 4.64c1.224 0 2.187-.917 2.187-2.12s-.992-2.149-2.187-2.149a2.14 2.14 0 0 0-2.159 2.149c-.029 1.174.934 2.12 2.159 2.12ZM147.6 8.22v.774c0 .773.525 1.403 1.254 1.547v13.807h1.838c.962 0 1.779-.773 1.779-1.719V8.221H147.6Zm13.387 6.13V8.25h-4.871v.773c0 .774.525 1.404 1.254 1.547v14.352c0 2.005-.204 3.351-2.829 5.185L156.612 33c4.025-2.779 4.375-5.5 4.375-8.078v-10.57Zm-49.58 4.956v-6.044c.992-1.289 2.654-2.292 4.637-2.292 3.179 0 5.25 2.521 5.25 5.328 0 3.438-2.829 5.329-5.425 5.329-2.508-.029-4.083-1.805-4.462-2.32Zm13.474-2.979c0-5.357-4.666-8.45-8.457-8.45-1.779 0-3.558.515-5.017 1.747V0h-1.808c-.962 0-1.779.802-1.779 1.747v21.657c0 2.349 2.829.659 3.587-.258.263.143 2.304 1.575 5.017 1.575 4.637 0 8.457-3.78 8.457-8.393Zm-19.802-8.393c-4.2-.344-5.22 1.289-5.862 2.148V8.221h-1.808c-.963 0-1.78.774-1.78 1.748v14.38h1.809c.962 0 1.779-.773 1.779-1.747v-8.91c.641-1.546 2.391-2.434 4.112-2.434.525 0 .933.057 1.312.172l.438-3.495Z" opacity="0.7"></path></g><defs><clipPath id="clip0_4468_44965"><path fill="#fff" d="M0 0h201v33H0z"></path></clipPath></defs></svg>