<svg xmlns:xlink="http://www.w3.org/1999/xlink"  xmlns="http://www.w3.org/2000/svg" width="128" height="24" fill="none" viewBox="0 0 128 24" class="SvgIcon_root__AnyvP Footer_arbmvbrukMobile__1jnRm SvgIcon_size_20__yOxOn"><g fill="#FEFEFE" clip-path="url(#clip0_3552_64061)" opacity="0.7"><path d="M29.851 5.21h-2.087l-.556 1.453h-.804l2.226-5.62h.402l2.195 5.62h-.82l-.556-1.452Zm-1.84-.726h1.593l-.789-2.115-.803 2.115Zm6.849 1.564v.631h-3.308v-.458l2.288-2.984h-2.15v-.632h3.093v.427L32.51 6.048h2.35Zm.556-1.343c0-.078 0-.157.016-.22 0-.064.015-.111.015-.158h3.185c-.031-.158-.078-.3-.14-.443a1.037 1.037 0 0 0-.262-.363 1.105 1.105 0 0 0-.417-.252 1.641 1.641 0 0 0-.588-.095c-.232 0-.48.047-.742.126-.263.08-.48.19-.65.332l-.308-.553c.185-.142.417-.284.726-.395.31-.11.634-.173.99-.173.37 0 .695.063.973.19a1.8 1.8 0 0 1 .665.489c.17.205.294.426.371.694.078.253.124.521.124.79 0 .3-.047.584-.14.837a2.12 2.12 0 0 1-.401.679c-.17.19-.387.331-.634.442-.247.11-.526.158-.835.158-.278 0-.54-.048-.773-.142a1.792 1.792 0 0 1-1.005-1.058 2.144 2.144 0 0 1-.17-.885Zm1.933 1.406c.17 0 .324-.032.464-.095.139-.063.262-.142.37-.237.109-.095.202-.22.279-.363.077-.142.123-.3.154-.458h-2.458c.031.363.155.647.371.853.232.205.495.3.82.3Zm2.86-3.521h.68v.6c.123-.237.278-.427.464-.537.185-.11.417-.174.68-.174.077 0 .154 0 .232.016.077.016.154.016.247.047l-.062.71a1.277 1.277 0 0 0-.835.017.974.974 0 0 0-.587.647 1.74 1.74 0 0 0-.093.6v2.163h-.71c-.016-.016-.016-4.09-.016-4.09Zm5.024-.095c.278 0 .54.047.788.174.248.11.448.268.634.458.185.189.31.426.417.678.093.269.155.537.155.837 0 .3-.046.585-.155.837a1.91 1.91 0 0 1-.417.68c-.17.189-.386.346-.634.457-.247.11-.51.174-.788.174-.294 0-.557-.063-.789-.19a1.856 1.856 0 0 1-.602-.505v.6h-.712V.916h.712v2.305c.17-.237.37-.41.602-.537.217-.126.48-.189.789-.189Zm-.093 3.584c.216 0 .402-.031.557-.11.17-.08.309-.174.432-.316.124-.126.201-.284.279-.458.061-.174.092-.363.092-.568 0-.19-.03-.38-.092-.553a1.25 1.25 0 0 0-.279-.458 1.471 1.471 0 0 0-.432-.316 1.301 1.301 0 0 0-.557-.11c-.2 0-.402.031-.556.11-.17.08-.31.174-.433.316a1.217 1.217 0 0 0-.263.458 1.656 1.656 0 0 0-.093.553c0 .205.031.394.093.568.062.174.154.332.263.458.123.126.262.237.432.316.17.079.356.11.557.11Zm6.786-3.49v4.074h-.68V6.08a1.91 1.91 0 0 1-.618.505c-.232.111-.495.174-.788.174-.294 0-.557-.047-.804-.174a2.053 2.053 0 0 1-.634-.457 1.843 1.843 0 0 1-.418-.695 2.6 2.6 0 0 1-.154-.853c0-.3.046-.584.154-.852.109-.269.232-.474.418-.664.17-.19.386-.331.634-.442.247-.11.51-.158.804-.158.293 0 .556.064.788.174.232.126.448.3.618.505v-.6c0 .048.68.048.68.048Zm-2.01 3.506c.217 0 .403-.032.573-.126.17-.095.309-.19.433-.316.123-.126.216-.284.278-.474.062-.174.093-.363.093-.568 0-.19-.031-.38-.093-.569a1.25 1.25 0 0 0-.278-.458 1.47 1.47 0 0 0-.433-.315 1.324 1.324 0 0 0-.572-.11c-.217 0-.402.03-.557.11-.17.079-.309.19-.432.315a1.195 1.195 0 0 0-.279.474 1.684 1.684 0 0 0-.093.569c0 .205.031.394.093.568.062.174.155.332.279.474.123.126.262.236.432.315.155.08.34.111.557.111Zm6.602-3.505-1.67 4.531c-.17.474-.37.79-.603.995-.216.19-.479.284-.788.284-.124 0-.247-.016-.356-.047a1.147 1.147 0 0 1-.278-.11l.093-.632c.077.031.139.063.232.079.092.015.17.031.247.031a.64.64 0 0 0 .433-.158c.124-.11.247-.3.355-.552l.155-.363-1.731-4.074h.834l1.237 3.063 1.067-3.063.773.016Zm2.504 4.168a2.15 2.15 0 0 1-.85-.158 1.977 1.977 0 0 1-.665-.442 2.029 2.029 0 0 1-.433-.679 2.254 2.254 0 0 1-.154-.852c0-.3.046-.6.154-.853a1.85 1.85 0 0 1 .449-.679c.2-.19.417-.332.68-.442.263-.11.556-.158.865-.158.186 0 .387.032.573.079.185.047.355.126.51.221.154.095.293.205.432.332.124.126.232.284.31.442l-.588.347a1.45 1.45 0 0 0-.51-.553 1.25 1.25 0 0 0-.711-.205c-.201 0-.387.032-.572.11-.17.08-.325.174-.448.316a1.22 1.22 0 0 0-.294.474 1.454 1.454 0 0 0-.108.584c0 .206.03.395.108.585a1.47 1.47 0 0 0 .727.774c.17.078.355.11.556.11.247 0 .495-.063.727-.206a1.36 1.36 0 0 0 .51-.52l.603.347c-.078.158-.186.3-.31.426a2.267 2.267 0 0 1-.432.332 1.827 1.827 0 0 1-.51.205 2.653 2.653 0 0 1-.619.063Zm6.462-4.168v4.073h-.68V6.08a1.91 1.91 0 0 1-.618.505c-.232.111-.495.174-.789.174-.294 0-.556-.047-.788-.174a2.053 2.053 0 0 1-.634-.457 1.845 1.845 0 0 1-.418-.695 2.602 2.602 0 0 1-.154-.853c0-.3.046-.584.154-.852.093-.253.232-.474.418-.664.185-.19.386-.331.634-.442.247-.11.51-.158.788-.158.294 0 .557.064.789.174.231.126.448.3.618.505v-.6c-.016.048.68.048.68.048Zm-2.025 3.505c.216 0 .402-.032.572-.126.17-.08.309-.19.433-.316.123-.126.216-.284.278-.474.062-.174.093-.363.093-.568 0-.19-.031-.38-.093-.569a1.25 1.25 0 0 0-.278-.458 1.471 1.471 0 0 0-.433-.315 1.325 1.325 0 0 0-.572-.11c-.217 0-.402.03-.557.11-.17.079-.309.19-.433.315a1.195 1.195 0 0 0-.278.474 1.684 1.684 0 0 0-.093.569c0 .205.031.394.093.568.062.174.155.332.278.474.124.126.263.236.433.315.17.08.356.111.557.111Zm3.138-3.505h.696v.584c.123-.221.293-.395.51-.505.216-.11.48-.174.757-.174.217 0 .402.032.603.095.186.063.356.173.51.315.14.143.263.316.356.537.093.221.124.474.124.758v2.463h-.712V4.405c0-.41-.092-.726-.293-.931a.971.971 0 0 0-.727-.316 1.038 1.038 0 0 0-.788.347c-.093.111-.17.237-.232.395a1.333 1.333 0 0 0-.077.505v2.258h-.712l-.015-4.073Zm8.085 1.8h-.757v2.29h-.742V1.041h1.87c.294 0 .541.048.758.142.216.095.401.221.54.38a1.708 1.708 0 0 1 .433 1.152c0 .174-.03.347-.077.521-.046.174-.139.332-.232.474a1.865 1.865 0 0 1-.402.379c-.154.11-.34.19-.556.237l1.53 2.336h-.912L74.682 4.39Zm-.757-.727h.989c.2 0 .371-.031.51-.079.14-.063.263-.126.34-.22a.692.692 0 0 0 .186-.3.917.917 0 0 0 .061-.348.944.944 0 0 0-.061-.363c-.047-.11-.093-.221-.17-.3a.892.892 0 0 0-.31-.205 1.159 1.159 0 0 0-.417-.08h-1.128v1.895Zm7.59.885v.22c0 .064-.016.111-.016.159h-3.184c.03.157.077.3.14.442.06.142.154.268.262.363.108.11.247.19.417.252.17.064.356.095.588.095.232 0 .479-.047.742-.126.247-.08.463-.19.649-.332l.31.553a2.623 2.623 0 0 1-.727.395c-.31.11-.634.173-.99.173-.37 0-.695-.063-.974-.19a1.8 1.8 0 0 1-.664-.489 1.935 1.935 0 0 1-.371-.679 2.716 2.716 0 0 1-.124-.789c0-.3.046-.584.139-.853.093-.268.232-.49.402-.679.17-.19.386-.331.634-.442a2 2 0 0 1 .82-.158c.277 0 .54.048.772.142.232.095.433.237.618.411.17.174.31.395.402.647.109.285.155.569.155.885Zm-1.917-1.406c-.17 0-.325.032-.464.095s-.263.142-.37.237c-.109.095-.202.221-.279.363-.077.142-.124.3-.155.458h2.458c-.03-.363-.154-.647-.37-.853-.233-.205-.51-.3-.82-.3Zm3.88 3.616a1.88 1.88 0 0 1-.417-.047 1.26 1.26 0 0 1-.402-.158 2.9 2.9 0 0 1-.371-.284 1.527 1.527 0 0 1-.294-.395l.51-.395c.124.221.279.395.464.49.186.094.356.158.526.158.231 0 .402-.064.525-.174a.505.505 0 0 0 .186-.395.461.461 0 0 0-.108-.316.852.852 0 0 0-.263-.205c-.062-.032-.14-.079-.217-.11-.092-.032-.185-.08-.278-.111-.093-.047-.185-.079-.278-.126a2.875 2.875 0 0 0-.232-.11 1.066 1.066 0 0 1-.464-.443 1.171 1.171 0 0 1-.046-1.01.988.988 0 0 1 .263-.364 1.33 1.33 0 0 1 .417-.236c.155-.064.34-.095.541-.095.247 0 .48.047.711.158.232.11.417.268.557.49l-.449.441a.884.884 0 0 0-.402-.363.985.985 0 0 0-.448-.11.625.625 0 0 0-.433.142.495.495 0 0 0-.139.347c0 .079.031.174.077.253a.64.64 0 0 0 .263.22c.14.064.294.143.464.206.186.079.34.158.51.237.217.11.371.252.495.41.124.158.185.364.185.616 0 .174-.03.332-.108.49a1.45 1.45 0 0 1-.294.394 1.34 1.34 0 0 1-.463.269c-.17.095-.371.126-.588.126Zm4.406-4.263c.294 0 .556.063.804.174.247.11.448.268.634.458.185.189.324.426.417.678.093.253.155.537.155.822 0 .3-.047.584-.155.836-.108.253-.232.49-.417.68-.186.189-.387.347-.634.457-.248.11-.51.174-.804.174-.294 0-.572-.063-.804-.19a2.088 2.088 0 0 1-.618-.505v2.274h-.711V2.59h.71v.615c.17-.236.387-.41.62-.536.246-.11.51-.174.803-.174Zm-.093 3.6c.201 0 .402-.032.572-.126.17-.08.31-.19.433-.316.124-.126.216-.284.278-.474.062-.174.093-.363.093-.568 0-.19-.03-.38-.093-.569a1.463 1.463 0 0 0-.278-.473 1.236 1.236 0 0 0-.433-.316 1.324 1.324 0 0 0-.572-.11c-.216 0-.402.03-.572.11-.17.079-.309.19-.433.316-.123.126-.2.284-.278.458a1.682 1.682 0 0 0-.093.568c0 .205.031.395.093.568.062.174.155.332.278.474.124.126.263.237.433.316.17.11.371.142.572.142Zm4.607.679a2.04 2.04 0 0 1-.711-.126 1.4 1.4 0 0 1-.541-.348 1.437 1.437 0 0 1-.34-.552 2.098 2.098 0 0 1-.124-.727V2.59h.711v2.415c0 .332.093.6.263.79.17.19.417.3.742.3s.572-.095.742-.3c.17-.19.263-.458.263-.79V2.59h.711V5.02c0 .537-.155.963-.448 1.28-.294.315-.727.473-1.268.473Zm4.885-4.279c.278 0 .541.063.788.174.248.11.449.268.634.458.186.189.31.426.418.678.092.269.154.537.154.837 0 .3-.046.585-.154.837-.109.253-.232.49-.418.68-.185.189-.386.346-.634.457-.247.11-.51.174-.788.174-.294 0-.556-.063-.804-.19a1.71 1.71 0 0 1-.603-.505v.6h-.71V.916h.71v2.305c.17-.237.371-.41.603-.537.248-.126.51-.189.804-.189Zm-.077 3.584c.2 0 .402-.031.556-.11.17-.08.31-.174.433-.316.124-.126.201-.284.278-.458.062-.174.093-.363.093-.568 0-.19-.03-.38-.093-.553a1.25 1.25 0 0 0-.278-.458 1.471 1.471 0 0 0-.433-.316 1.301 1.301 0 0 0-.556-.11c-.201 0-.402.031-.557.11-.17.08-.309.174-.433.316a1.217 1.217 0 0 0-.262.458 1.656 1.656 0 0 0-.093.553c0 .205.03.394.093.568.061.174.154.332.262.458.124.126.263.237.433.316.155.079.34.11.557.11Zm2.937.584V.916h.711v5.763h-.711v-.016Zm2.195-4.658a.547.547 0 0 1-.371-.142.474.474 0 0 1-.155-.379c0-.142.047-.268.155-.363a.547.547 0 0 1 .371-.142c.139 0 .263.048.356.142a.51.51 0 0 1 .139.363.521.521 0 0 1-.139.38.461.461 0 0 1-.356.141Zm-.355 4.658V2.59h.711v4.073h-.711Zm2.906-1.894-.387.347v1.547h-.711V.916h.711v3.332l1.794-1.658h.974l-1.871 1.72 1.932 2.37h-.943c0-.017-1.499-1.911-1.499-1.911Zm6.817-2.18v4.074h-.68V6.08c-.17.221-.386.38-.618.505-.232.111-.495.174-.789.174a1.72 1.72 0 0 1-.804-.174 2.047 2.047 0 0 1-.633-.457 1.842 1.842 0 0 1-.418-.695 2.594 2.594 0 0 1-.154-.853c0-.3.046-.584.154-.852.108-.269.232-.474.418-.664a1.932 1.932 0 0 1 1.437-.6c.294 0 .557.064.789.174.232.126.433.3.618.505v-.6c-.015.048.68.048.68.048Zm-2.025 3.506c.201 0 .402-.032.572-.126.17-.08.309-.19.433-.316s.216-.284.278-.474a1.68 1.68 0 0 0 .093-.568c0-.19-.031-.38-.093-.569a1.247 1.247 0 0 0-.278-.458 1.476 1.476 0 0 0-.433-.315 1.323 1.323 0 0 0-.572-.11c-.216 0-.402.03-.572.11-.17.079-.309.19-.433.315a1.204 1.204 0 0 0-.278.474c-.062.19-.093.363-.093.569 0 .205.031.394.093.568.062.174.155.332.278.474.124.126.263.236.433.315.17.08.371.111.572.111Zm4.251.663c-.139 0-.278-.016-.417-.047a1.263 1.263 0 0 1-.402-.158 2.907 2.907 0 0 1-.371-.284 1.55 1.55 0 0 1-.294-.395l.51-.395c.124.221.279.395.464.49.186.094.356.158.541.158.232 0 .402-.064.526-.174a.503.503 0 0 0 .185-.395.462.462 0 0 0-.108-.316.84.84 0 0 0-.263-.205c-.062-.032-.139-.079-.216-.11-.093-.032-.186-.08-.278-.111-.093-.047-.186-.079-.279-.126a2.805 2.805 0 0 0-.231-.11 1.06 1.06 0 0 1-.464-.443 1.169 1.169 0 0 1-.047-1.01c.062-.143.155-.253.263-.364a1.32 1.32 0 0 1 .418-.236 1.44 1.44 0 0 1 .541-.095c.247 0 .479.047.711.158.232.11.417.268.556.49l-.448.441a.88.88 0 0 0-.402-.363.985.985 0 0 0-.448-.11.624.624 0 0 0-.433.142.494.494 0 0 0-.139.347c0 .079.031.174.077.253a.636.636 0 0 0 .263.22c.139.064.294.143.464.206.185.079.34.158.51.237.216.11.371.252.494.41.124.158.186.364.186.616 0 .174-.031.332-.108.49-.078.142-.17.284-.294.394a1.34 1.34 0 0 1-.464.269 1.336 1.336 0 0 1-.603.126Zm2.257-.095V2.59h.711v4.073h-.711Zm1.824-4.073h.696v.584c.124-.221.294-.395.51-.505.217-.11.479-.174.758-.174.201 0 .402.032.603.095.185.063.355.173.51.315.154.143.263.316.355.537.093.221.124.474.124.758v2.463h-.711V4.405c0-.41-.093-.726-.294-.931a.946.946 0 0 0-.726-.316 1.041 1.041 0 0 0-.789.347c-.093.111-.17.237-.232.395a1.74 1.74 0 0 0-.077.505v2.258h-.711l-.016-4.073Zm4.607 4.073V2.59h.711v4.073h-.711Zm1.824-4.073h.696v.584c.124-.221.294-.395.51-.505.217-.11.479-.174.758-.174.201 0 .402.032.603.095.185.063.355.173.51.315.154.143.263.316.355.537.093.221.124.474.124.758v2.463h-.711V4.405c0-.41-.093-.726-.294-.931a.946.946 0 0 0-.726-.316 1.038 1.038 0 0 0-.789.347c-.093.111-.17.237-.232.395a1.74 1.74 0 0 0-.077.505v2.258h-.727V2.59Zm-94.5 8.794c.17.048.325.127.464.221.123.095.247.206.324.332.093.126.155.269.201.426.047.158.062.316.062.474 0 .205-.03.395-.108.6a1.83 1.83 0 0 1-.325.521 1.58 1.58 0 0 1-.525.363 1.835 1.835 0 0 1-.742.142h-2.273v-5.62h2.18c.247 0 .48.047.665.126.185.079.34.19.479.315.123.127.216.285.278.443.062.173.093.331.093.505 0 .252-.062.474-.201.695a1.09 1.09 0 0 1-.572.457Zm-2.21-1.831v1.563h1.313c.14 0 .279-.032.371-.079a.878.878 0 0 0 .279-.19.79.79 0 0 0 .17-.268 1.04 1.04 0 0 0 .061-.3.527.527 0 0 0-.061-.268.515.515 0 0 0-.17-.237 1.099 1.099 0 0 0-.263-.174.918.918 0 0 0-.371-.063l-1.33.016Zm1.406 4.184c.17 0 .325-.031.448-.079a.707.707 0 0 0 .325-.22c.077-.096.155-.19.201-.3a.878.878 0 0 0 .077-.348.998.998 0 0 0-.062-.363.843.843 0 0 0-.2-.316.854.854 0 0 0-.34-.221 1.453 1.453 0 0 0-.48-.08h-1.391v1.927h1.422Zm3.092-3.932a.547.547 0 0 1-.371-.142.473.473 0 0 1-.155-.379c0-.142.047-.268.155-.363a.52.52 0 0 1 .37-.142c.14 0 .264.048.356.142.093.095.14.221.14.363a.518.518 0 0 1-.14.38.484.484 0 0 1-.355.141Zm-.371 4.658V10.39h.71v4.073h-.71Zm4.808-.631v.616H33.36v-.458l2.288-2.985H33.5v-.615h3.108v.426l-2.288 3.016h2.35Zm.803-3.442h.696v.584c.124-.221.294-.379.51-.505.217-.11.48-.174.758-.174.2 0 .402.031.603.11a1.453 1.453 0 0 1 .865.853c.093.221.124.474.124.758v2.463h-.711v-2.29c0-.41-.093-.726-.294-.93a.947.947 0 0 0-.726-.317 1.038 1.038 0 0 0-.789.348c-.093.11-.17.237-.232.394a1.331 1.331 0 0 0-.077.506v2.258h-.711l-.016-4.058Zm8.317 1.958v.205c0 .063-.015.11-.015.158h-3.185c.031.158.078.3.14.442.061.142.154.268.262.363.108.11.248.19.418.253.17.063.355.094.587.094.232 0 .48-.047.742-.126.247-.079.48-.19.65-.332l.309.553a2.625 2.625 0 0 1-.727.395 2.9 2.9 0 0 1-.99.174c-.386 0-.695-.064-.973-.19a1.799 1.799 0 0 1-.665-.49 1.935 1.935 0 0 1-.371-.678 2.715 2.715 0 0 1-.124-.79c0-.3.047-.584.14-.837.092-.252.231-.49.401-.679.17-.19.387-.347.634-.442.248-.11.526-.158.835-.158.278 0 .541.048.773.143.232.094.433.22.618.41.17.174.31.395.402.647.078.269.14.553.14.885Zm-1.932-1.421c-.17 0-.325.031-.464.094a1.5 1.5 0 0 0-.37.237c-.109.11-.202.221-.28.363-.076.142-.123.3-.154.458h2.474c-.031-.363-.155-.647-.371-.853-.248-.189-.51-.3-.835-.3ZM47.737 14.56a1.88 1.88 0 0 1-.417-.048 1.78 1.78 0 0 1-.402-.158 2.904 2.904 0 0 1-.371-.284 1.856 1.856 0 0 1-.294-.395l.51-.41c.124.22.278.394.464.489.185.095.355.158.526.158.231 0 .401-.064.525-.174a.528.528 0 0 0 .186-.395.461.461 0 0 0-.109-.316.669.669 0 0 0-.262-.205c-.062-.031-.14-.079-.217-.11-.093-.032-.17-.08-.278-.127-.093-.031-.186-.079-.278-.11-.093-.032-.155-.08-.232-.11a1.065 1.065 0 0 1-.464-.443 1.17 1.17 0 0 1-.046-1.01.989.989 0 0 1 .262-.364.946.946 0 0 1 .402-.236c.155-.063.34-.095.541-.095.248 0 .48.047.712.158.231.11.417.268.556.49l-.448.441a.883.883 0 0 0-.402-.363 1.24 1.24 0 0 0-.449-.11.625.625 0 0 0-.432.142.47.47 0 0 0-.14.347c0 .08.031.174.078.253a.64.64 0 0 0 .263.22c.139.064.293.127.463.206l.51.237c.217.11.387.253.495.41.124.158.186.364.186.616 0 .174-.031.332-.108.49-.078.142-.17.284-.294.395-.124.11-.279.205-.464.268-.155.11-.356.142-.572.142Zm4.251-5.717h.356l2.38 3.569 2.366-3.569h.37v5.621h-.741v-3.79l-1.886 2.843h-.186l-1.886-2.842v3.805h-.742c-.03-.016-.03-5.637-.03-5.637Zm7.637.932a.547.547 0 0 1-.371-.142.529.529 0 0 1-.155-.38c0-.141.047-.268.155-.362a.496.496 0 0 1 .371-.142c.14 0 .263.047.355.142.093.094.14.22.14.363a.518.518 0 0 1-.14.379.484.484 0 0 1-.355.142Zm1.484 0a.547.547 0 0 1-.371-.142.528.528 0 0 1-.155-.38c0-.141.047-.268.155-.362a.495.495 0 0 1 .371-.142c.14 0 .263.047.356.142.092.094.139.22.139.363a.519.519 0 0 1-.14.379.484.484 0 0 1-.355.142Zm-.758 4.784a2.04 2.04 0 0 1-.71-.126 1.4 1.4 0 0 1-.542-.348 1.376 1.376 0 0 1-.34-.537 2.095 2.095 0 0 1-.123-.726v-2.431h.71v2.415c0 .332.093.6.264.79.17.19.417.3.742.3.324 0 .572-.095.742-.3.17-.19.262-.458.262-.79v-2.415h.712v2.431c0 .537-.155.963-.464 1.28-.294.315-.711.457-1.252.457Zm2.768-5.858h.695v2.195c.124-.174.294-.316.51-.442.217-.11.48-.174.758-.174.216 0 .402.032.603.11.185.064.355.174.495.316.139.143.262.316.34.537.077.221.139.474.139.758v2.463h-.711v-2.273c0-.41-.093-.727-.294-.932a.947.947 0 0 0-.727-.316c-.154 0-.309.032-.448.095a.923.923 0 0 0-.34.253c-.093.11-.17.236-.216.394a1.73 1.73 0 0 0-.078.506v2.273h-.71l-.016-5.763Zm4.962 1.105a.547.547 0 0 1-.371-.142.528.528 0 0 1-.155-.379c0-.142.047-.268.155-.363a.547.547 0 0 1 .371-.142c.14 0 .263.047.355.142.093.095.14.221.14.363a.518.518 0 0 1-.14.38c-.077.094-.2.141-.355.141Zm-.356 4.658v-4.073h.712v4.073h-.712Zm4.437-.237c-.139.111-.309.206-.495.253a2.274 2.274 0 0 1-.572.08c-.432 0-.757-.143-.973-.412-.217-.268-.31-.647-.31-1.12v-2.022h-.71v-.615h.71V8.938h.712v1.453h1.406v.615h-1.407v2.085c0 .252.047.442.14.584.092.142.262.22.494.22.124 0 .248-.015.371-.062.124-.048.232-.095.34-.174.016 0 .294.568.294.568Zm.928-4.42a.547.547 0 0 1-.371-.143.473.473 0 0 1-.155-.379c0-.142.047-.268.155-.363a.547.547 0 0 1 .37-.142c.14 0 .264.047.356.142.093.095.14.221.14.363a.518.518 0 0 1-.14.38.46.46 0 0 1-.355.141Zm-.356 4.657v-4.073h.711v4.073h-.71Zm7.204-4.073-1.762 4.073h-.495l-1.762-4.073h.788l1.221 3.047 1.206-3.047h.804Zm.402 2.1v-.206c0-.047.015-.11.015-.158h3.185c-.031-.157-.077-.3-.14-.442a1.038 1.038 0 0 0-.262-.363 1.106 1.106 0 0 0-.417-.252 1.641 1.641 0 0 0-.588-.095c-.232 0-.48.047-.742.126a1.95 1.95 0 0 0-.65.332l-.308-.553c.185-.142.417-.284.726-.395a2.9 2.9 0 0 1 .99-.173c.386 0 .695.063.974.19a1.8 1.8 0 0 1 .664.489c.17.205.294.426.371.694.078.253.124.521.124.79 0 .3-.046.584-.14.837-.092.252-.231.49-.417.679-.17.19-.386.331-.633.442a2 2 0 0 1-.82.158c-.278 0-.54-.048-.773-.143a2.025 2.025 0 0 1-.618-.41 1.822 1.822 0 0 1-.402-.647 2.813 2.813 0 0 1-.14-.9Zm1.932 1.42c.17 0 .325-.03.464-.094a1.5 1.5 0 0 0 .371-.237c.108-.095.201-.22.278-.363.078-.142.124-.3.155-.458h-2.474c.031.363.155.647.371.853.232.19.51.3.835.3Zm7.792-2.526c.17.048.324.127.463.221.14.095.232.206.325.332.093.126.155.268.201.426.046.158.062.316.062.474 0 .205-.031.395-.108.6-.078.19-.186.363-.325.521-.14.158-.325.268-.526.363a1.833 1.833 0 0 1-.742.142h-2.272v-5.62h2.18c.247 0 .479.047.664.126.186.079.34.19.48.315.123.127.216.285.278.442.062.174.093.332.093.506 0 .252-.062.473-.201.694-.155.222-.34.38-.572.458Zm-2.211-1.831v1.563h1.314c.14 0 .278-.032.386-.079a.875.875 0 0 0 .279-.19.79.79 0 0 0 .17-.268c.03-.095.062-.205.062-.3a.529.529 0 0 0-.062-.268.516.516 0 0 0-.17-.237 1.099 1.099 0 0 0-.263-.174.918.918 0 0 0-.371-.063l-1.345.016Zm1.422 4.184c.17 0 .325-.032.448-.079a.856.856 0 0 0 .34-.221.928.928 0 0 0 .202-.3.877.877 0 0 0 .077-.347.997.997 0 0 0-.062-.364.844.844 0 0 0-.2-.315.857.857 0 0 0-.341-.221 1.457 1.457 0 0 0-.48-.08h-1.39v1.927h1.406Zm6.416-1.39v.206c0 .063-.016.11-.016.158h-3.184c.03.158.077.3.139.442.062.142.154.268.263.363.108.11.247.19.417.253.17.063.355.094.587.094.232 0 .48-.047.742-.126.248-.079.464-.19.65-.332l.309.553a2.623 2.623 0 0 1-.727.395c-.309.11-.633.174-.989.174-.371 0-.696-.064-.974-.19a1.8 1.8 0 0 1-.665-.49 1.937 1.937 0 0 1-.37-.678 2.716 2.716 0 0 1-.124-.79c0-.3.046-.584.139-.837a1.91 1.91 0 0 1 .417-.679c.17-.19.387-.347.634-.442a2 2 0 0 1 .82-.158c.278 0 .54.048.772.142.232.095.433.221.619.411.17.174.309.395.401.647.093.253.14.553.14.884Zm-1.933-1.42c-.17 0-.324.031-.463.094a1.5 1.5 0 0 0-.371.237c-.109.11-.202.221-.279.363a1.6 1.6 0 0 0-.154.458h2.473c-.03-.363-.154-.647-.37-.853a1.29 1.29 0 0 0-.836-.3Zm6.246-.537-1.67 4.531c-.17.474-.37.805-.603.995-.216.19-.479.284-.788.284a1.29 1.29 0 0 1-.356-.047 1.15 1.15 0 0 1-.278-.11l.093-.632c.077.031.154.063.232.079.077.031.17.031.247.031a.64.64 0 0 0 .433-.158c.124-.11.247-.3.355-.552l.155-.364-1.731-4.073h.819l1.237 3.063 1.066-3.063.789.016Zm.664 0h.696v.584c.124-.221.294-.38.51-.505a1.68 1.68 0 0 1 .758-.174c.201 0 .402.032.603.11a1.465 1.465 0 0 1 .865.853c.093.221.124.474.124.758v2.463h-.711v-2.29c0-.41-.093-.726-.294-.93a.946.946 0 0 0-.726-.317 1.042 1.042 0 0 0-.789.348c-.093.11-.17.236-.232.394a1.74 1.74 0 0 0-.077.506v2.257h-.711l-.016-4.057Zm4.36 2.1v-.206c0-.047.015-.11.015-.158h3.185a2.093 2.093 0 0 0-.139-.442 1.043 1.043 0 0 0-.263-.363 1.103 1.103 0 0 0-.417-.252 1.647 1.647 0 0 0-.588-.095c-.232 0-.479.047-.742.126-.247.08-.464.19-.649.332l-.309-.553c.185-.142.417-.284.726-.395a2.9 2.9 0 0 1 .99-.173c.371 0 .695.063.973.19.279.125.495.283.665.489.17.205.294.426.371.694.077.253.124.521.124.79 0 .3-.046.584-.139.837-.093.252-.232.49-.418.679-.17.19-.386.331-.633.442-.248.11-.526.158-.82.158-.278 0-.541-.048-.773-.143a2.016 2.016 0 0 1-.618-.41 1.827 1.827 0 0 1-.402-.647 2.805 2.805 0 0 1-.139-.9Zm1.932 1.42c.17 0 .325-.03.464-.094.139-.063.263-.142.371-.237.108-.095.201-.22.278-.363.078-.142.124-.3.155-.458h-2.474c.031.363.155.647.371.853.248.19.511.3.835.3Zm2.86.553V8.701h.711v5.763h-.711Zm4.128 0-.974-1.531-.974 1.531h-.85l1.406-2.116-1.267-1.957h.819l.881 1.437.897-1.437h.835l-1.345 2.02 1.376 2.07h-.804v-.017Zm5.333-4.073v4.073h-.68v-.584a1.91 1.91 0 0 1-.619.505c-.231.11-.494.174-.788.174-.294 0-.556-.063-.804-.174a2.062 2.062 0 0 1-.634-.457 1.853 1.853 0 0 1-.417-.695 2.595 2.595 0 0 1-.155-.853c0-.3.047-.584.155-.837.093-.252.232-.473.417-.663a1.929 1.929 0 0 1 1.438-.6c.294 0 .557.063.788.19.232.126.433.284.619.505v-.6l.68.016Zm-2.025 3.505c.201 0 .402-.032.572-.126.17-.08.309-.19.433-.316.123-.142.216-.284.278-.474a1.68 1.68 0 0 0 .093-.568c0-.206-.031-.38-.093-.569a1.26 1.26 0 0 0-.278-.458 1.476 1.476 0 0 0-.433-.315 1.328 1.328 0 0 0-.572-.127c-.217 0-.402.032-.572.127-.17.094-.309.19-.433.315a1.192 1.192 0 0 0-.278.474 1.68 1.68 0 0 0-.093.569c0 .189.031.378.093.568.062.174.154.332.278.474.124.142.263.236.433.315.17.08.371.11.572.11Zm3.138.568V8.701h.711v5.763h-.711Zm5.704-4.073v5.763h-.726V13.88a1.91 1.91 0 0 1-.619.505c-.231.127-.51.174-.803.174-.294 0-.557-.063-.804-.174a2.039 2.039 0 0 1-.634-.457 1.891 1.891 0 0 1-.417-.68 2.159 2.159 0 0 1-.155-.836c0-.3.046-.569.155-.837.092-.253.231-.49.417-.68.185-.189.386-.346.634-.457.247-.11.51-.174.804-.174.293 0 .572.064.803.19.232.126.449.3.619.52v-.615h.726v.032Zm-2.056 3.505c.201 0 .402-.032.572-.126.17-.08.31-.19.433-.316a1.57 1.57 0 0 0 .278-.474 1.68 1.68 0 0 0 .093-.568c0-.206-.031-.38-.093-.569a1.234 1.234 0 0 0-.278-.458 1.463 1.463 0 0 0-.433-.315 1.325 1.325 0 0 0-.572-.127c-.216 0-.402.032-.572.127-.17.079-.309.19-.432.315-.124.127-.201.285-.279.458a1.68 1.68 0 0 0-.093.569c0 .205.031.394.093.568.062.174.155.332.279.474.123.126.262.237.432.316.186.079.371.126.572.126Zm-95.536 6.079h-.757v2.29h-.742v-5.622h1.87c.294 0 .541.048.758.142.216.095.401.221.54.38.14.157.248.33.325.536.062.205.108.41.108.616 0 .174-.03.347-.077.505-.046.174-.139.332-.232.474a1.868 1.868 0 0 1-.402.379c-.154.11-.355.19-.556.237l1.53 2.337h-.912l-1.453-2.274Zm-.773-.727h.99c.2 0 .37-.031.51-.078a.76.76 0 0 0 .34-.222c.077-.094.154-.189.185-.3.031-.11.062-.236.062-.347a.944.944 0 0 0-.247-.663.767.767 0 0 0-.294-.205 1.158 1.158 0 0 0-.417-.08h-1.129v1.895Zm7.606.9c0 .095 0 .158-.015.222-.016.063-.016.11-.016.157h-3.184c.03.158.077.3.139.443.062.142.154.268.262.363.109.11.248.19.418.252.17.063.355.095.587.095.232 0 .48-.047.742-.126.263-.08.48-.19.65-.332l.309.553c-.17.142-.418.284-.727.395a2.9 2.9 0 0 1-.99.173c-.37 0-.695-.063-.973-.19a1.799 1.799 0 0 1-.665-.489 1.935 1.935 0 0 1-.37-.679 2.716 2.716 0 0 1-.125-.79c0-.3.047-.583.14-.836.092-.253.232-.49.401-.679.17-.19.387-.331.634-.442.248-.11.526-.158.835-.158.278 0 .541.048.773.142a1.792 1.792 0 0 1 1.005 1.058c.124.253.17.537.17.868Zm-1.932-1.42c-.17 0-.325.031-.464.094a1.5 1.5 0 0 0-.371.237 1.316 1.316 0 0 0-.279.363 1.6 1.6 0 0 0-.154.458h2.458c-.031-.363-.155-.647-.371-.852-.216-.206-.495-.3-.82-.3Zm6.245-.553-1.67 4.531c-.17.474-.37.79-.602.995-.217.19-.48.284-.789.284a1.29 1.29 0 0 1-.355-.047 1.147 1.147 0 0 1-.279-.11l.093-.632c.062.031.14.063.232.079a.71.71 0 0 0 .247.031.64.64 0 0 0 .433-.158c.124-.11.247-.3.356-.552l.154-.363-1.731-4.074h.82l1.236 3.063 1.067-3.063.788.016Zm3.277 3.837c-.139.11-.309.205-.494.252a1.73 1.73 0 0 1-.572.08c-.433 0-.758-.143-.974-.411-.217-.269-.31-.648-.31-1.121V18.79h-.71v-.616h.71v-1.437h.712v1.453h1.422v.615H41.29v2.085c0 .252.046.442.139.584.093.142.263.22.51.22.124 0 .247-.015.37-.062.125-.048.233-.095.341-.174l.278.553Zm.943-4.406a.547.547 0 0 1-.37-.142.528.528 0 0 1-.155-.379c0-.142.046-.268.154-.363a.547.547 0 0 1 .371-.142c.14 0 .263.048.356.142.093.095.139.221.139.363a.518.518 0 0 1-.14.38.556.556 0 0 1-.355.141Zm-.37 4.658v-4.073h.71v4.073h-.71Zm1.823-4.09h.696v.585a1.32 1.32 0 0 1 .51-.505c.217-.127.48-.174.758-.174.216 0 .402.032.603.11.185.064.355.174.51.316.139.142.263.316.355.537.093.221.124.474.124.758v2.463h-.711v-2.273c0-.41-.093-.727-.294-.932a.971.971 0 0 0-.726-.316 1.039 1.039 0 0 0-.789.348c-.093.11-.17.236-.232.394a1.333 1.333 0 0 0-.077.506v2.273h-.711l-.016-4.09Zm8.487 0v5.764h-.71v-2.274a1.91 1.91 0 0 1-.62.506c-.231.126-.51.173-.803.173-.294 0-.556-.063-.788-.173a2.051 2.051 0 0 1-.634-.458 1.782 1.782 0 0 1-.418-.68 2.437 2.437 0 0 1-.154-.836c0-.3.046-.569.154-.821a1.91 1.91 0 0 1 .418-.68c.185-.189.386-.346.634-.457.247-.11.51-.174.788-.174.294 0 .572.064.804.19.232.126.448.3.618.52v-.6h.711Zm-2.056 3.506c.217 0 .402-.032.572-.11.17-.08.31-.19.433-.316.124-.142.217-.284.278-.474.062-.174.093-.363.093-.568 0-.19-.03-.38-.093-.569a1.249 1.249 0 0 0-.278-.458 1.47 1.47 0 0 0-.433-.315 1.327 1.327 0 0 0-.572-.127c-.216 0-.402.032-.572.127-.17.078-.309.19-.432.315a1.249 1.249 0 0 0-.279.458 1.682 1.682 0 0 0-.093.569c0 .205.031.394.093.568.062.174.155.332.279.474.123.142.262.237.432.316.186.078.371.11.572.11Zm3.154.584v-5.763h.711v5.763h-.711Zm1.592-1.973v-.206c0-.063.016-.11.016-.158h3.184c-.03-.157-.077-.3-.139-.442a1.038 1.038 0 0 0-.263-.363 1.106 1.106 0 0 0-.417-.252 1.64 1.64 0 0 0-.588-.095c-.231 0-.479.047-.742.126-.247.08-.463.19-.649.332l-.309-.553c.17-.142.417-.284.727-.395.309-.11.633-.173.989-.173.371 0 .696.063.974.19.278.125.495.283.665.489.17.205.293.426.37.694.078.253.124.521.124.79 0 .3-.046.584-.139.853-.093.252-.232.489-.402.678-.17.19-.386.332-.634.442-.247.111-.525.158-.834.158-.279 0-.541-.047-.773-.142a1.855 1.855 0 0 1-.619-.41 1.822 1.822 0 0 1-.402-.648c-.092-.3-.139-.6-.139-.915Zm1.933 1.405c.17 0 .324-.032.463-.095a1.5 1.5 0 0 0 .371-.237c.109-.094.201-.22.279-.363.077-.142.123-.3.154-.458H57.23c.03.363.154.648.37.853.233.205.511.3.836.3Zm2.86-3.521h.68v.6c.123-.237.278-.426.463-.537.186-.11.418-.174.68-.174.078 0 .155 0 .233.016.077 0 .154.032.247.048l-.062.71a1.276 1.276 0 0 0-.835.016.976.976 0 0 0-.588.647c-.061.174-.077.363-.077.6v2.163h-.71v-4.09h-.032Zm5.673-.6a.547.547 0 0 1-.371-.142.529.529 0 0 1-.155-.38c0-.141.047-.268.155-.362a.496.496 0 0 1 .37-.142c.14 0 .264.047.356.142.093.094.14.22.14.363a.518.518 0 0 1-.14.379.51.51 0 0 1-.355.142Zm1.484 0a.547.547 0 0 1-.371-.142.529.529 0 0 1-.155-.38c0-.141.047-.268.155-.362a.496.496 0 0 1 .371-.142c.14 0 .263.047.356.142.092.094.139.22.139.363a.519.519 0 0 1-.14.379.51.51 0 0 1-.355.142Zm-.757 4.784a2.04 2.04 0 0 1-.712-.126 1.4 1.4 0 0 1-.54-.348 1.503 1.503 0 0 1-.34-.537 2.166 2.166 0 0 1-.124-.726v-2.431h.71v2.415c0 .332.093.6.264.79.17.19.417.3.742.3.324 0 .572-.095.742-.3.17-.19.262-.458.262-.79v-2.415h.712v2.431c0 .537-.155.963-.464 1.28-.294.3-.711.457-1.252.457Zm5.75-.726v.616h-3.308v-.458l2.288-2.985h-2.149v-.615h3.107v.426l-2.272 3.016h2.334Zm.804-3.458h.68v.6c.124-.237.279-.426.464-.537.186-.11.418-.174.68-.174.078 0 .155 0 .232.016.077 0 .155.032.247.048l-.061.71a1.275 1.275 0 0 0-.835.016.976.976 0 0 0-.588.647 1.743 1.743 0 0 0-.092.6v2.163h-.711c-.016 0-.016-4.09-.016-4.09ZM76.908 20.29v-.205c0-.063.016-.11.016-.158h3.184a2.1 2.1 0 0 0-.139-.442 1.037 1.037 0 0 0-.263-.363 1.105 1.105 0 0 0-.417-.252 1.641 1.641 0 0 0-.588-.095c-.231 0-.479.047-.742.126-.247.08-.463.19-.649.332l-.309-.553c.185-.142.417-.284.727-.395a2.9 2.9 0 0 1 .989-.173c.37 0 .696.063.974.19.278.125.495.283.665.489.17.205.293.426.37.694.078.269.124.521.124.79 0 .3-.046.584-.139.852a1.91 1.91 0 0 1-.417.68c-.17.189-.387.331-.634.442a2 2 0 0 1-.82.157c-.278 0-.54-.047-.772-.142a2.026 2.026 0 0 1-.619-.41 1.823 1.823 0 0 1-.402-.648c-.092-.252-.139-.6-.139-.915Zm1.933 1.406c.17 0 .324-.032.463-.095.14-.063.263-.142.371-.237.109-.094.201-.22.279-.363.077-.142.123-.3.154-.458H77.65c.031.363.155.648.371.853.217.205.495.3.82.3Zm6.338-1.91-.758.9v1.563h-.742v-5.622h.742v3.064l2.52-3.064h.881l-2.18 2.653 2.381 2.968h-.927l-1.917-2.463Zm5.178 2.573c-.309 0-.587-.063-.85-.174a2.014 2.014 0 0 1-.665-.458 2.171 2.171 0 0 1-.587-1.516c0-.3.046-.568.155-.82.108-.253.247-.49.433-.68.185-.189.401-.347.664-.457a2.155 2.155 0 0 1 1.7 0c.264.11.48.268.666.458.185.19.324.426.432.679.108.252.155.536.155.82 0 .3-.046.585-.155.838-.108.252-.247.489-.433.678-.185.19-.401.348-.664.458-.263.11-.541.174-.85.174Zm0-.679c.201 0 .371-.032.541-.11.17-.08.31-.19.433-.316.124-.142.217-.284.294-.474.077-.174.108-.363.108-.568a1.484 1.484 0 0 0-.402-1.027 1.47 1.47 0 0 0-.433-.315 1.294 1.294 0 0 0-.54-.127c-.186 0-.371.032-.542.127-.17.078-.309.189-.432.315a1.54 1.54 0 0 0-.294.458 1.379 1.379 0 0 0-.108.569c0 .205.03.394.108.568.077.174.17.332.294.474.123.142.262.237.432.316.155.078.34.11.541.11Zm7.56-3.6c.247 0 .464.047.665.126.2.08.355.206.494.348.14.158.248.331.325.552.077.221.108.458.108.727v2.431h-.71v-2.32c0-.395-.094-.68-.264-.885-.17-.205-.402-.3-.695-.3a.97.97 0 0 0-.433.095 1.274 1.274 0 0 0-.34.252c-.093.11-.17.237-.217.38a1.623 1.623 0 0 0-.077.489v2.29h-.711v-2.306c0-.379-.093-.679-.263-.884a.893.893 0 0 0-.711-.316 1.018 1.018 0 0 0-.773.347c-.093.11-.17.237-.216.38-.062.141-.078.315-.078.505v2.273h-.71v-4.073h.695v.6c.108-.221.278-.395.495-.521.216-.127.448-.19.726-.19.263 0 .51.063.742.19.232.126.402.315.51.568.14-.221.325-.41.588-.553.247-.142.54-.205.85-.205Zm3.014-.474a.55.55 0 0 1-.371-.142.473.473 0 0 1-.154-.379c0-.142.046-.268.154-.363a.549.549 0 0 1 .371-.142c.14 0 .263.047.356.142a.505.505 0 0 1 .139.363.517.517 0 0 1-.139.38.462.462 0 0 1-.356.141Zm-.355 4.658v-4.073h.711v4.073h-.711Zm2.937.08c-.139 0-.278-.017-.417-.048a1.256 1.256 0 0 1-.402-.158 2.845 2.845 0 0 1-.371-.284 1.507 1.507 0 0 1-.294-.395l.51-.41c.124.22.278.394.464.489.185.095.355.158.525.158.232 0 .402-.063.526-.174a.528.528 0 0 0 .186-.395.396.396 0 0 0-.109-.3.849.849 0 0 0-.262-.205c-.062-.031-.14-.079-.217-.11-.093-.032-.185-.08-.278-.127-.093-.047-.186-.079-.278-.126-.093-.047-.155-.079-.232-.11a1.065 1.065 0 0 1-.464-.443 1.169 1.169 0 0 1-.046-1.01c.061-.142.154-.253.262-.363a1.09 1.09 0 0 1 .418-.237c.154-.063.34-.095.541-.095.247 0 .479.047.711.158.232.11.417.268.557.49l-.449.442a.88.88 0 0 0-.402-.364 1.239 1.239 0 0 0-.448-.11.624.624 0 0 0-.433.142.494.494 0 0 0-.139.347c0 .08.031.174.077.253.047.095.139.158.263.221.139.063.294.142.464.205.185.08.34.158.51.237.216.11.371.253.495.41.123.174.185.364.185.617 0 .173-.031.331-.108.489-.077.142-.17.284-.294.395a1.33 1.33 0 0 1-.464.268c-.185.11-.386.142-.587.142Zm3.37 0c-.139 0-.278-.017-.417-.048a1.256 1.256 0 0 1-.402-.158 2.845 2.845 0 0 1-.371-.284 1.53 1.53 0 0 1-.294-.395l.51-.41c.124.22.278.394.464.489.185.095.355.158.541.158.232 0 .402-.063.526-.174a.53.53 0 0 0 .185-.395.399.399 0 0 0-.108-.3.853.853 0 0 0-.263-.205c-.062-.031-.139-.079-.216-.11-.093-.032-.17-.08-.279-.127-.108-.047-.185-.079-.278-.126-.093-.032-.17-.079-.232-.11a1.07 1.07 0 0 1-.464-.443 1.18 1.18 0 0 1-.046-1.01c.062-.142.155-.253.263-.363.108-.095.247-.19.417-.237.155-.063.34-.095.541-.095.248 0 .48.047.711.158.232.11.418.268.557.49l-.448.442a.89.89 0 0 0-.402-.364 1.243 1.243 0 0 0-.449-.11.623.623 0 0 0-.432.142.495.495 0 0 0-.14.347c0 .08.031.174.078.253.046.095.139.158.263.221.139.063.293.142.463.205.186.08.34.158.51.237.217.11.372.253.495.41a1 1 0 0 1 .186.617c0 .173-.031.331-.109.489-.077.142-.17.284-.293.395a1.35 1.35 0 0 1-.464.268c-.186.11-.386.142-.603.142Zm2.644-4.738a.545.545 0 0 1-.371-.142.47.47 0 0 1-.155-.379.46.46 0 0 1 .155-.363.545.545 0 0 1 .371-.142c.139 0 .262.047.355.142a.505.505 0 0 1 .139.363.517.517 0 0 1-.139.38.484.484 0 0 1-.355.141Zm-.371 4.658v-4.073h.711v4.073h-.711Zm5.287-4.09-1.67 4.532c-.17.474-.371.79-.603.995-.216.19-.495.284-.788.284-.124 0-.248-.015-.356-.047a1.143 1.143 0 0 1-.278-.11l.093-.632c.077.031.139.063.231.079.078.031.171.031.248.031a.642.642 0 0 0 .433-.158c.123-.11.247-.3.355-.552l.155-.363-1.732-4.074h.82l1.236 3.063 1.067-3.063.789.016Zm4.514 0v4.09h-.681v-.584c-.17.221-.386.379-.618.505-.232.11-.495.174-.788.174-.294 0-.557-.063-.804-.174a2.039 2.039 0 0 1-.634-.458 1.842 1.842 0 0 1-.418-.694 2.62 2.62 0 0 1-.154-.853c0-.3.046-.584.154-.837.109-.252.232-.473.418-.663a1.924 1.924 0 0 1 1.438-.6c.293 0 .556.063.788.19.232.126.433.284.618.505v-.6h.681Zm-2.01 3.506c.201 0 .402-.032.572-.11.17-.08.309-.19.433-.316.123-.142.216-.284.278-.474a1.68 1.68 0 0 0 .093-.568c0-.19-.031-.38-.093-.569a1.262 1.262 0 0 0-.278-.458 1.476 1.476 0 0 0-.433-.315 1.329 1.329 0 0 0-.572-.127c-.217 0-.402.032-.572.127-.17.094-.309.189-.433.315a1.193 1.193 0 0 0-.278.474c-.062.19-.093.363-.093.568 0 .206.031.38.093.569.062.174.154.331.278.474.124.126.263.236.433.315.17.08.355.095.572.095Zm4.236.663c-.14 0-.279-.016-.418-.047a1.265 1.265 0 0 1-.402-.158 2.986 2.986 0 0 1-.371-.284 1.526 1.526 0 0 1-.293-.395l.51-.41c.123.22.278.394.463.489.186.095.356.158.542.158.231 0 .401-.063.525-.174a.528.528 0 0 0 .186-.395.396.396 0 0 0-.109-.3.849.849 0 0 0-.262-.205c-.062-.031-.14-.079-.217-.11-.093-.032-.17-.08-.278-.127-.108-.047-.186-.079-.278-.126-.093-.032-.17-.079-.232-.11a1.065 1.065 0 0 1-.464-.443 1.169 1.169 0 0 1-.046-1.01c.061-.142.154-.253.262-.363a1.09 1.09 0 0 1 .418-.237c.154-.063.34-.095.541-.095.247 0 .479.047.711.158.232.11.417.268.557.49l-.449.442a.88.88 0 0 0-.402-.364 1.239 1.239 0 0 0-.448-.11.624.624 0 0 0-.433.142.494.494 0 0 0-.139.347c0 .08.031.174.077.253.047.095.139.158.263.221.139.063.294.142.464.205.185.08.34.158.51.237.216.11.371.253.495.41.123.174.185.364.185.617 0 .173-.031.331-.108.489-.077.142-.17.284-.294.395a1.33 1.33 0 0 1-.464.268c-.185.11-.386.142-.602.142Zm2.272-.079v-4.073h.711v4.073h-.711ZM10.496 0C5.225 0 .943 4.374.943 9.758c0 5.384 4.282 9.758 9.553 9.758 5.272 0 9.554-4.374 9.554-9.758C20.05 4.374 15.768 0 10.496 0Zm8.859 9.71-1.346-.568a7.67 7.67 0 0 0-1.84-4.437l.557-1.39c.016.017.031.017.031.032a9.046 9.046 0 0 1 2.598 6.364Zm-2.783 1.2 1.391-.6a7.631 7.631 0 0 1-1.762 4.39l-.588-1.421a6.42 6.42 0 0 0 .959-2.368Zm-.974 2.306-.665-1.61 1.577-.68a5.782 5.782 0 0 1-.912 2.29Zm-1.082-1.784 1.685 4.09-4.02-1.675-1.638 4.106-1.685-4.09-4.004 1.721 1.639-4.105-4.02-1.674 4.004-1.72-1.685-4.09 4.02 1.673 1.638-4.105 1.685 4.09 4.004-1.721L14.5 8.037l4.02 1.674-4.004 1.72Zm-.526 3.52 1.407.585a7.359 7.359 0 0 1-4.282 1.831l.572-1.436a5.874 5.874 0 0 0 2.303-.98Zm-2.272.932.649-1.61 1.577.663c-.68.474-1.438.79-2.226.947Zm-2.35.063.587 1.421a7.445 7.445 0 0 1-4.282-1.784l1.392-.6c.695.49 1.484.821 2.303.963Zm-2.242-.979 1.562-.678.665 1.61a5.936 5.936 0 0 1-2.227-.932ZM5.41 13.31l-.571 1.437a7.74 7.74 0 0 1-1.794-4.342l1.407.585c.155.82.495 1.626.958 2.32Zm-.912-2.305 1.577.663-.634 1.595a6.303 6.303 0 0 1-.943-2.258Zm-.061-2.4-1.392.6a7.672 7.672 0 0 1 1.747-4.373l.588 1.42a6.474 6.474 0 0 0-.943 2.353Zm.958-2.29.665 1.596-1.577.663a6.244 6.244 0 0 1 .912-2.258Zm1.623-1.752L5.611 3.98a7.315 7.315 0 0 1 4.267-1.832l-.572 1.437c-.82.158-1.608.49-2.288.98Zm2.257-.931-.649 1.61-1.561-.663a6.003 6.003 0 0 1 2.21-.947Zm2.35-.08-.587-1.42a7.386 7.386 0 0 1 4.297 1.784l-1.391.6a6.37 6.37 0 0 0-2.319-.963Zm2.257.995-1.577.68-.665-1.611a5.62 5.62 0 0 1 2.242.931Zm1.7 1.627.572-1.421a7.854 7.854 0 0 1 1.81 4.373l-1.408-.584a6.342 6.342 0 0 0-.974-2.368c0 .015 0 .015 0 0Zm.928 2.352-1.592-.663.649-1.626c.464.679.788 1.468.943 2.29Zm.216-5.21-1.344.584a7.358 7.358 0 0 0-4.36-1.816L10.45.711h.077c2.32 0 4.56.931 6.2 2.605ZM10.45.71 9.894 2.1a7.386 7.386 0 0 0-4.329 1.863l-1.36-.568.03-.032A8.673 8.673 0 0 1 10.45.711ZM4.19 3.395l.571 1.39A7.788 7.788 0 0 0 2.983 9.22l-1.36.584v-.079A9.173 9.173 0 0 1 4.19 3.395Zm-2.551 6.41 1.375.569a7.753 7.753 0 0 0 1.825 4.42L4.282 16.2l-.03-.032a8.995 8.995 0 0 1-2.613-6.363ZM4.267 16.2l1.36-.584a7.358 7.358 0 0 0 4.36 1.816l.571 1.39h-.077A8.706 8.706 0 0 1 4.267 16.2Zm6.276 2.621.556-1.39a7.43 7.43 0 0 0 4.344-1.863l1.36.569-.03.031a8.799 8.799 0 0 1-6.23 2.653Zm6.26-2.7-.571-1.374a7.71 7.71 0 0 0 1.793-4.468l1.345-.584v.079c-.015 2.384-.928 4.658-2.566 6.347Z"></path><path d="M18.195 6.9a.365.365 0 0 0 .217-.332.468.468 0 0 0-.031-.142.358.358 0 0 0-.325-.22.365.365 0 0 0-.356.363c0 .047.016.094.031.141a.358.358 0 0 0 .325.221c.046-.015.093-.015.14-.031Zm-.263-.632c.031-.016.062-.016.109-.016.108 0 .2.064.247.174.015.032.015.063.015.11 0 .111-.062.222-.17.253-.03.016-.061.016-.108.016-.108 0-.216-.063-.247-.174-.016-.031-.016-.079-.016-.11 0-.095.062-.205.17-.253ZM13.774 2.369a.384.384 0 0 0 .216-.332.468.468 0 0 0-.03-.142.35.35 0 0 0-.325-.221c-.047 0-.093.016-.14.031a.384.384 0 0 0-.216.332c0 .047.015.095.031.142a.335.335 0 0 0 .325.221.443.443 0 0 0 .139-.031Zm-.278-.616c.046-.016.077-.016.108-.016.108 0 .216.063.247.174a.238.238 0 0 1 .015.11c0 .11-.061.221-.17.253-.03.016-.061.016-.108.016a.265.265 0 0 1-.247-.174c-.016-.032-.016-.063-.016-.11a.33.33 0 0 1 .17-.253ZM7.513 2.369a.384.384 0 0 0 .216-.332c0-.047 0-.095-.03-.142a.335.335 0 0 0-.325-.221.443.443 0 0 0-.14.031.384.384 0 0 0-.216.332.47.47 0 0 0 .031.142.335.335 0 0 0 .325.221c.046 0 .093-.016.139-.031Zm-.263-.616c.031-.016.077-.016.108-.016.109 0 .201.063.248.174a.239.239 0 0 1 .015.11c0 .11-.062.221-.17.253-.03.016-.062.016-.108.016-.108 0-.216-.064-.247-.174-.016-.032-.016-.063-.016-.11a.27.27 0 0 1 .17-.253ZM2.628 6.695c.062.126.185.22.324.22.047 0 .093-.015.14-.03.139-.048.216-.19.216-.332a.47.47 0 0 0-.03-.142c-.063-.127-.186-.222-.326-.222-.046 0-.092.016-.139.032a.365.365 0 0 0-.216.332c0 .063.015.11.03.142Zm.185-.427c.031-.015.062-.015.109-.015.108 0 .216.063.247.173a.239.239 0 0 1 .015.11c0 .111-.061.222-.17.253-.03.016-.077.016-.108.016-.108 0-.216-.063-.247-.173-.016-.032-.016-.08-.016-.111 0-.095.078-.205.17-.253ZM2.813 12.616a.365.365 0 0 0-.216.331c0 .048.015.095.03.142a.375.375 0 0 0 .325.221c.047 0 .093-.016.14-.031a.365.365 0 0 0 .216-.332.47.47 0 0 0-.03-.142.375.375 0 0 0-.326-.221c-.046.016-.092.016-.139.032Zm.217.568c-.031.016-.078.016-.108.016-.109 0-.217-.063-.248-.174-.015-.031-.015-.063-.015-.11 0-.111.062-.222.17-.253.03-.016.062-.016.108-.016.108 0 .216.063.247.174.016.031.016.063.016.11 0 .11-.077.206-.17.253ZM7.25 17.147a.365.365 0 0 0-.216.331c0 .048.015.095.03.142a.375.375 0 0 0 .325.221.365.365 0 0 0 .356-.363c0-.047-.016-.094-.031-.142a.358.358 0 0 0-.325-.22.303.303 0 0 0-.139.03Zm.201.552c-.03.016-.062.016-.108.016a.265.265 0 0 1-.247-.174c-.016-.031-.016-.063-.016-.11a.27.27 0 0 1 .17-.253c.031-.015.062-.015.108-.015.109 0 .217.063.248.173a.239.239 0 0 1 .015.11.27.27 0 0 1-.17.253ZM13.495 17.147a.365.365 0 0 0-.216.331c0 .048.015.095.031.142a.358.358 0 0 0 .325.221.366.366 0 0 0 .356-.363c0-.047-.016-.094-.032-.142-.062-.126-.185-.22-.324-.22-.047 0-.093.015-.14.03Zm.217.552c-.031.016-.062.016-.108.016a.265.265 0 0 1-.248-.174c-.015-.031-.015-.063-.015-.11a.27.27 0 0 1 .17-.253c.03-.015.062-.015.108-.015.108 0 .217.063.248.173.015.032.015.063.015.11 0 .111-.077.206-.17.253ZM18.38 12.82a.357.357 0 0 0-.324-.22.366.366 0 0 0-.356.363c0 .047.016.094.031.142a.358.358 0 0 0 .325.22c.046 0 .093-.015.14-.03a.365.365 0 0 0 .216-.332.468.468 0 0 0-.031-.142Zm-.247.364c-.03.016-.061.016-.108.016-.108 0-.216-.063-.247-.174-.016-.032-.016-.063-.016-.11 0-.111.062-.222.17-.253.031-.016.062-.016.109-.016.108 0 .2.063.247.174.015.031.015.063.015.11a.27.27 0 0 1-.17.253ZM10.636 5.795a5.636 5.636 0 0 0-.371 1.879c0 1.642.664 2.068.664 3.742 0 .268-.061.837-.355.837-.464 0 .015-1.09.015-1.895 0-.821-.68-1.895-.494-3.632-1.608 1.99-.541 4.39-.433 4.627.093.22.232.426.093.537-.124.11-.279 0-.356-.19-.386-.931-.48-1.973-.325-3.252-.804 1.231-.819 2.431-.278 3.442-.077-.3-.2-.885-.062-1.28.14 1.974 1.02 2.417 1.299 2.417.278 0 .386-.206.525-.206.124 0 .124.174.371.174.402 0 .943-.805.943-2.226 0-2.242-1.375-3.3-1.236-4.974Z"></path><path d="M12.073 10.563c0 1.595-.556 2.069-.556 2.069a3.283 3.283 0 0 0 1.298-2.574c0-1.39-1.376-2.526-1.607-3.331 0 1.279.865 2.1.865 3.836ZM1.578 13.232c-.016-.032-.016-.064-.032-.095 0 .047.016.079.032.095ZM1.5 13.042c-.016-.032-.016-.063-.031-.095.015.032.015.063.031.095ZM1.778 13.767c-.047-.095-.078-.19-.124-.285.046.095.093.19.124.285Z"></path><path d="M20.684 13.515c0-.032-.015-.048-.015-.048h-.016c-.015 0-.03.016-.03.032-.078.237-.17.49-.28.726l-.154.127c.016-.08.031-.158.047-.253.139-.3.262-.616.355-.947v-.016c0-.016-.015-.032-.03-.032h-.016c-.016 0-.031.016-.031.032a4.227 4.227 0 0 1-.263.742c0-.095.016-.205.016-.332.123-.284.216-.584.278-.884v-.016c0-.015-.016-.031-.031-.031h-.015c-.016 0-.031.016-.031.031a3.428 3.428 0 0 1-.201.68v-.38c.092-.315.17-.678.216-1.01 0-.016-.015-.032-.03-.032h-.016c-.016 0-.031.016-.031.032-.062.363-.155.774-.248 1.12l-.123.206c-.031.063-.078.127-.14.221l-.015.016c.093-.332.186-.663.248-.947v-.016c0-.016-.016-.032-.032-.032h-.015c-.015 0-.03.016-.03.032-.078.347-.202.805-.325 1.2-.078.11-.14.237-.201.363l.015-.284c.124-.316.247-.71.371-1.184v-.016c0-.016-.015-.032-.03-.032h-.016c-.016 0-.031.016-.031.032a9.008 9.008 0 0 1-.418 1.295l-.108.158c-.077.094-.139.189-.2.3.107-.443.324-.916.401-1.343-1.36 3.885-4.962 6.458-8.997 6.458h-.016c-2.906 0-5.642-1.358-7.45-3.663 0 0 0 .016.015.016-.047.205-.186.474-.356.395-.2-.095-.123-.285-.077-.364.046-.094.03-.189-.186-.363a.227.227 0 0 1-.092-.19c0-.11.062-.204.17-.236 0 .016.015.016.015.032-.154-.253-.309-.506-.448-.774.015.031.03.047.03.079 0 0 .17.695-.015.41-.247-.868-.556-1.42-.958-2.052-.016-.016-.016-.016-.031-.016 0 0-.016 0-.016.016-.015 0-.015.016-.015.031v.016c.31.458.572.963.788 1.484a3.506 3.506 0 0 0-.51-.568h-.062c-.015 0-.015-.016-.03-.016-.016 0-.016 0-.031.016v.031c0 .016 0 .016.015.032l.031.032c.31.268.572.505.758 1.09.154.52-.093.947-.449.947-.479 0-.665-.49-.665-.68-.015-.315.279-.347.294-.6.016-.252-.417-.552-.525-.631-.155-.11-.248-.347.123-.505a.253.253 0 0 0 .124-.221.205.205 0 0 0-.062-.158c-.355-.41-.355-.585-.185-.79.247-.316.618.206.726.506v.015c0 .016.016.032.016.032a5.414 5.414 0 0 1-.155-.537.615.615 0 0 0-.417-.253.344.344 0 0 0-.279.158c-.309.41-.03.79.14.948.03.016.139.11-.047.19-.263.094-.263.236-.278.33v.064c0 .063.015.126.03.19-.03 0-.061-.016-.107-.016a.501.501 0 0 0-.294.094c-.186.206.17.569.355.71-.015.064-.03.19.155.253.062.016.108.032.17.032h.062a.58.58 0 0 0-.031.174v.015c.015.269.185.837.82.837a.418.418 0 0 0-.063.237c0 .521.31.49.31.648 0 .126-.418.157-.418.505 0 .347.217.505.68.505.232 0 .263.032.263.063 0 .063-.324.174-.324.395 0 .079.046.332.417.458-.124.063-.216.142-.216.268 0 .095.046.237.34.348.154.063.309.094.479.11.03.048.093.08.154.095 0 .095.047.19.124.253.077.078.17.157.263.236-.31.016-.588.206-.634.474 0 .032-.015.063-.015.095 0 .095.03.19.092.253.093.11.232.189.387.205h.046a.77.77 0 0 0 .263-.048c.046-.015.093-.015.14-.031h.015s0 .016.015.016c.016.047.031.094.046.126.047.142.109.331.31.331-.124.3-.093.632.092.774.031.032.078.047.124.047.17 0 .371-.205.51-.363.17-.205.31-.22.31-.22.061.03.139.063.216.078a.149.149 0 0 1 .124.142.145.145 0 0 1-.062.127.617.617 0 0 0-.17.426v.047c0 .269.216.506.494.506h.016c.649 0 .603-.49.587-.632-.015-.174.093-.142.14-.11.185.142.355.173.54.031.062-.047.109-.095.124-.174.077.08.17.127.278.127h.016a.415.415 0 0 0 .263-.095v.016c0 .079.046.158.123.205.031.016.062.032.093.032-.015.015-.03.015-.046.031-.031.016-.047.032-.078.048a.181.181 0 0 0-.046.126v.016c.015.173.263.22.417.22.047 0 .093 0 .14-.015a.546.546 0 0 0 .139-.063c.092-.063.2-.142.34-.221-.078.047-.14.11-.201.158l-.016.015a.19.19 0 0 0-.077.142v.032c.03.174.31.205.433.205a.866.866 0 0 0 .51-.173l.03-.032c.186-.174.372-.316.588-.458.263.158.912.553.974.584l.14.048a.8.8 0 0 0 .2.016c.387 0 .712-.158.727-.348v-.016c0-.079-.046-.142-.124-.173a83.408 83.408 0 0 1-.943-.458l.031.016c.263.031 1.067.536 1.067.536.077.032.154.064.232.064h.015c.155 0 .433-.064.464-.237v-.032c0-.095-.046-.158-.14-.19-.015 0-.015 0-.03-.015-.031-.016-.046-.016-.077-.016-.789-.268-1.098-.458-1.206-.52.726.3 1.468.567 2.21.789-.092.079-.386.268-1.035.363 0 .031.015.063.03.11.186.048.356.063.557.063h.077a3.23 3.23 0 0 0 1.376-.347c.016-.237.062-.458.124-.679h.216c-.092.142-.17.284-.2.458a2.63 2.63 0 0 0 .664-.332l.325-.19c.154-.189.278-.41.34-.646-.031-.127-.108-.127-.108-.127-.356.048-.696.08-.99.11a7.409 7.409 0 0 0 1.624-.489 6.2 6.2 0 0 0 .865-.41c.016 0 .016-.016.016-.032v-.016c-.016-.015-.016-.015-.031-.015h-.016a5.393 5.393 0 0 1-.912.442c-.17.047-.355.063-.54.063-.156 0-.295-.016-.45-.047a5.335 5.335 0 0 0 2.15-.916 3.36 3.36 0 0 0 .479-.348c.015-.015.015-.015.015-.031s0-.016-.015-.032c-.016-.016-.016-.016-.031-.016-.016 0-.016 0-.031.016-.14.11-.278.221-.417.316a2.856 2.856 0 0 1-1.02.253 5.775 5.775 0 0 0 1.514-.853c.232-.142.464-.3.68-.474.016-.015.016-.015.016-.031s0-.016-.015-.032c-.016-.016-.016-.016-.031-.016-.016 0-.016 0-.031.016a10.6 10.6 0 0 1-.742.521c-.201.11-.433.158-.665.158.464-.142.866-.426 1.422-.963.186-.142.371-.3.541-.474.016-.015.016-.015.016-.031s0-.016-.016-.032c-.015-.016-.015-.016-.03-.016-.016 0-.016 0-.032.016a7.59 7.59 0 0 1-.54.458 1.852 1.852 0 0 1-.696.253c.463-.206.85-.6 1.159-.98l.387-.394c0-.016.015-.016.015-.032 0-.015 0-.015-.015-.031 0-.016-.016-.016-.031-.016-.016 0-.016 0-.031.016a4.253 4.253 0 0 1-.371.379 1.34 1.34 0 0 1-.34.158l.015-.016c.325-.253.587-.569.788-.916.248-.284.464-.6.665-.916v-.015c0-.016-.015-.032-.015-.032h-.016c-.015 0-.03.016-.03.016a7.255 7.255 0 0 1-.727.979 1.102 1.102 0 0 1-.433.205c.386-.269.51-.569.896-1.184.14-.19.279-.41.402-.616v-.016c0-.016-.015-.032-.015-.032h-.015c-.016 0-.031.016-.031.016-.109.206-.248.41-.371.6-.078.08-.14.142-.232.19.185-.253.324-.537.448-.821.124-.206.216-.41.31-.632v-.016c0-.015-.016-.031-.016-.031h-.016c-.015 0-.03.016-.03.031-.078.19-.17.38-.279.553l-.139.19c.14-.253.247-.6.371-1.153.062-.205.14-.395.201-.6ZM1.036 14.557c0 .031-.031.063-.062.063s-.047-.031-.047-.063.031-.063.062-.063.047.031.047.063Zm-.881-.41c.046-.08.417-.08.618.094a1.348 1.348 0 0 1-.263.395c-.2-.142-.402-.395-.355-.49Zm.448.678c-.031 0-.062-.031-.062-.063 0-.031.03-.063.062-.063.03 0 .062.032.062.063 0 .032-.031.063-.062.063Zm.17-.331c.03 0 .062.031.062.063 0 .031-.031.063-.062.063S.71 14.59.71 14.557s.03-.063.062-.063Zm.015.331c-.03 0-.062-.031-.062-.063 0-.031.031-.063.062-.063s.062.032.062.063c0 .032-.03.063-.062.063Zm.078-.49c0-.03.03-.062.061-.062s.062.031.062.063c0 .031-.03.063-.062.063-.03 0-.061-.031-.061-.063Zm18.69-.015c.061-.252.448-.774.572-.995 0 .853-.032 1.074-.248 1.327-.2.268-.448.142-.325-.332Zm0 .569-.016.015v-.031l.015.016Zm-.17-.727c-.047.269.061.616.015.79-.046.173-.201.394-.31.173-.092-.22.063-.694.294-.963Zm-.882 1.2c.047-.237.433-.868.433-.868-.124.568.17 1.026-.03 1.231-.202.19-.542.41-.403-.363Zm-.309 1.263c.186-.19.371-.41.526-.647.015-.016.015-.016.03-.016.016 0 .016 0 .016.016.015 0 .015.016.015.032v.031c-.154.237-.34.458-.54.663-.047.11-.109.206-.155.284l.634-.647c.015-.016.015-.016.03-.016.016 0 .016 0 .031.016.016.016.016.016.016.032 0 .015 0 .015-.015.031-.263.3-.542.569-.835.837-.047.08-.108.142-.17.205-.217.221-.526.016-.31-.284.17-.237.542-.442.727-.537Zm-.2-.015c.107-.127.215-.269.308-.38a.468.468 0 0 1-.108.253c-.046.08-.124.11-.2.127Zm.076-.521c-.015 0-.015-.016-.03-.016-.016 0-.031 0-.031.015-.047.064-.109.127-.155.19.03-.3.34-.71.48-.837 0 .205 0 .442-.016.632-.108.126-.263.3-.402.473-.031-.047-.062-.094-.062-.157.062-.08.14-.174.216-.269 0 0 .016-.016.016-.032 0 .032-.016.016-.016 0Zm-.309.379c-.603.742-.386.963-.556 1.184-.17.22-.31.316-.387.236-.077-.063.016-.347.232-.631a6.9 6.9 0 0 1 .711-.79Zm-4.777 4.594c-.324-.095-.309-.458.078-.537.417-.094 1.128.3 1.747.3-.99.316-1.5.332-1.825.237Zm1.345.269c-.742.284-1.406.394-1.994.315-.572-.063-.495-.6-.108-.631.495-.047 1.206.395 2.102.316Zm.016-.68c.093 0 .185 0 .293-.015.093.047.186.079.279.126-.201-.016-.387-.063-.572-.11Zm-.464-.094c-.433-.063-.155-.458.093-.521.37-.095.85.284 1.298.331a2.49 2.49 0 0 1-1.005.206c-.139.015-.262 0-.386-.016Zm1.082-.379c.278 0 .572-.063.82-.174.061.032.108.063.185.095-.155.063-.31.11-.48.158-.046 0-.092.016-.138.016a.872.872 0 0 1-.387-.095Zm-.123-.063c-.263-.016-.418-.221-.109-.442.387-.284 1.144.11 1.376.079-.51.3-1.02.379-1.268.363Zm.587-.932c.2-.142.742.08 1.16.032-.464.284-.727.41-1.067.316-.232-.063-.217-.253-.093-.348Zm.572.442c.139-.063.294-.126.417-.205.093 0 .186.016.279.032-.124.063-.232.126-.34.173a.895.895 0 0 1-.217.032c-.03-.016-.093-.016-.14-.032Zm.17-.552c-.247 0-.325-.19-.124-.348.294-.252.65.016 1.206-.031-.587.331-.835.379-1.082.379Zm.572-.032c.154-.063.325-.158.51-.268.062 0 .124 0 .186.015a3.599 3.599 0 0 1-.696.348v-.095Zm.154-.505c-.278.016-.432-.158-.092-.348.294-.173.804-.015 1.16-.157-.495.41-.79.505-1.067.505 0 .016 0 0 0 0Zm-.015-1.28c-.263.49-.185.443-.2.743-.032.284-.372.584-.372.095 0-.38.464-.758.572-.837Zm-1.144 1.09c.155-.347.557-.647.557-.647-.232.458-.062.71-.31.947-.231.237-.386.064-.247-.3Zm-.062-.19c-.185.38.016.6-.278.917-.294.316-.417-.016-.263-.316.155-.269.387-.426.541-.6Zm-.448.27c-.417.489-.201.82-.541 1.136-.34.316-.48.016-.34-.284.154-.3.634-.726.881-.853Zm-.742.33c-.294.522-.325.948-.572 1.185-.247.253-.634.063-.371-.379.232-.379.788-.695.943-.805Zm-.866.396c-.37.631-.154.79-.634 1.263-.432.426-.525-.063-.386-.284a3.388 3.388 0 0 1 1.02-.98Zm-1.53 1.784c-.248.237-.541.063-.387-.3.248-.537.882-1.058 1.237-1.28-.51.743-.603 1.359-.85 1.58Zm-.31.237c-.216.079-.479.173-.757.3a.329.329 0 0 0-.093-.158c.248-.095.464-.174.68-.237a.367.367 0 0 0 .17.095Zm-.448-.127c-.278.285-.695.143-.494-.284.2-.442.958-1.042 1.453-1.231-.65.726-.541 1.09-.959 1.515Zm-.463-.568c-.016-.032-.031-.063-.062-.095a.487.487 0 0 0-.17-.142c.278-.253.649-.52 1.005-.631a8.092 8.092 0 0 0-.773.868Zm-.526-.79c.2-.142.51-.157.572-.063.077.127-.17.41-.34.506a.875.875 0 0 0-.232-.442Zm.062.348c.03 0 .062.031.062.063s-.031.063-.062.063-.062-.031-.062-.063.03-.063.062-.063Zm-.093-.095c0 .032-.03.063-.062.063-.03 0-.062-.031-.062-.063 0-.031.031-.063.062-.063.047 0 .062.032.062.063Zm-.093-.268c.031 0 .062.031.062.063 0 .031-.03.063-.062.063-.03 0-.062-.032-.062-.063 0-.032.031-.063.062-.063Zm-.015.395c.03 0 .062.031.062.063 0 .031-.031.063-.062.063s-.062-.032-.062-.063c0-.032.03-.064.062-.064Zm-.14-.206c.032 0 .063.032.063.063 0 .032-.031.063-.062.063s-.062-.031-.062-.063c0-.031.03-.063.062-.063Zm-1.02-.252c.201-.095.371-.111.495.031.247.3-.046.648.371.663.417.032.557-.094.804.158.247.269-.464.553-.108.727.402.205.37.52.232.694a.321.321 0 0 1-.263.142.33.33 0 0 1-.294-.173c-.124-.253-.247-.237-.37-.142-.125.094-.264.331-.418.063-.155-.269-.016-.648-.402-.616-.402.047-.418.616-.897.253a.494.494 0 0 1-.17-.3c0-.127.031-.253.077-.364h.016c.139-.031.263-.063.37-.078.14.063.248.142.326.268 0 .016.015.016.03.016h.016c.015-.016.015-.016.015-.032v-.016a.68.68 0 0 0-.262-.252c.355-.064.602-.064.85.031.294.237.294.38.278.6 0 .016.016.032.031.048.015 0 .03-.016.046-.032 0-.174.016-.3-.092-.458.262.221.51.474.71.758.016.016.016.016.032.016.015 0 .015 0 .03-.016.016-.016.016-.016.016-.032 0-.015 0-.015-.016-.031-.309-.395-.54-.648-.772-.805.247.031.587.063.757-.016.015 0 .031-.016.031-.032v-.015c0-.016-.016-.016-.03-.016h-.016c-.217.094-.789.015-.959-.048h-.015a1.587 1.587 0 0 0-.464-.079c-.093 0-.186.016-.278.032.232-.126.448-.3.633-.49 0-.015.016-.015.016-.031s0-.016-.016-.032c0 0-.015-.016-.03-.016-.016 0-.016 0-.031.016-.232.237-.51.427-.82.584-.108.016-.216.048-.34.08.201-.411.51-.774.881-1.058Zm-.231 2.131c.108.095.216.174.324.253a8.005 8.005 0 0 0-.37.205.72.72 0 0 0 .061-.316c0-.047 0-.095-.015-.142Zm0-.174a.27.27 0 0 1 .262-.189h.062l.155.079c0 .016 0 .031.015.047a.762.762 0 0 0 .108.332v.016a.459.459 0 0 0-.123.063c-.17-.095-.325-.221-.48-.348Zm-.263.348c-.031 0-.062-.032-.062-.063 0-.032.03-.064.062-.064.03 0 .062.032.062.064 0 .031-.031.063-.062.063Zm.046.142c0 .032-.03.063-.062.063-.03 0-.062-.032-.062-.063 0-.032.031-.063.062-.063s.062.031.062.063Zm-.17-.205c0 .031-.03.063-.062.063-.03 0-.062-.032-.062-.063 0-.032.031-.064.062-.064s.062.032.062.064Zm-4.313-4.8c.108.094.17.22.17.363 0 .047 0 .095-.015.142-.016 0-.031-.032-.062-.095-.031-.095-.14-.363-.356-.442.031-.016.062-.016.108-.016.062 0 .109.016.155.048Zm-.99 2.337c-.293-.016-.633-.143-.633-.285s.386-.252.634-.22c.015.078.03.173.03.252-.015.079-.015.174-.03.253Zm.14.11c-.031 0-.062-.031-.062-.063s.03-.063.062-.063c.03 0 .062.031.062.063s-.031.063-.062.063Zm.015-.237c-.03 0-.062-.031-.062-.063s.031-.063.062-.063.062.032.062.063c0 .032-.03.063-.062.063Zm.016-.268c-.031 0-.062-.032-.062-.063 0-.032.03-.064.062-.064.03 0 .062.032.062.064 0 .031-.031.063-.062.063Zm-.016-.458c0 .031 0 .063.016.095a.765.765 0 0 1-.418.126h-.03c-.433-.032-.619-.19-.619-.363 0-.158.356-.127.371-.38.015-.204-.232-.236-.433-.236-.525 0-.572-.19-.572-.316 0-.174.155-.19.371-.331.278-.158.093-.364-.093-.49-.185-.126-.34-.49-.015-.679.325-.19.48-.031.634.316.123.284.386.142.479.032a.293.293 0 0 1 .186-.064c.046 0 .092.016.139.032.123.126.247.253.386.363.047.11.062.237.062.363h-.077a.47.47 0 0 0-.294.095.495.495 0 0 0-.247.395v.031a.4.4 0 0 0 .015.127 3.656 3.656 0 0 0-.247-.237c0-.11-.016-.205-.016-.316 0-.174.016-.347.031-.505 0-.016-.015-.032-.03-.032-.016 0-.032.016-.032.032-.015.173-.03.347-.03.52v.222a7.567 7.567 0 0 1-.804-1.09c0-.015-.016-.015-.031-.015h-.016c-.015 0-.015.015-.015.031v.016c.247.41.525.774.835 1.137h-.155c-.186 0-.371-.016-.557-.063h-.015c-.015 0-.031.015-.031.031v.016c0 .016.016.032.031.032.185.047.386.063.572.063.077 0 .14 0 .216-.016.109.126.232.253.371.363a.819.819 0 0 0 .155.174c.17.142.185.19.185.205 0 0-.015.032-.046.047-.124.048-.232.127-.232.269Zm.14.742c.03 0 .061.032.061.063 0 .032-.03.063-.062.063-.03 0-.061-.031-.061-.063.015-.031.03-.063.061-.063Zm-.016-.205c0-.032.03-.063.062-.063.03 0 .062.031.062.063 0 .031-.031.063-.062.063s-.062-.032-.062-.063Zm.046.742c-.263-.253.17-.363.34-.584.093-.143-.015-.285-.247-.49-.216-.19-.14-.284.03-.426.186-.142.094-.269-.123-.458-.263-.221-.232-.537 0-.679.371-.221.541.095.634.332.093.236.232.173.387.078.2-.126.293.143.34.427.046.284.232.237.355.205.278-.047.402.095.48.284a.528.528 0 0 0-.093.3v.095c.03.142.139.253.278.3.046.016.077.032.124.047.293.143.309.174.293.253-.015.063-.046.063-.185.063h-.016c-.046 0-.092 0-.139.016-.185-.253-.51-.505-.773-.505h-.015v-.363c0-.016-.016-.032-.047-.032-.015 0-.03.016-.03.032v.378c-.031.016-.078.032-.109.048-.062.047-.108.095-.154.142a6.548 6.548 0 0 0-.325-.663c0-.41.046-.726.093-.821v-.016c0-.016 0-.032-.016-.032h-.015c-.016 0-.031.016-.031.016-.062.11-.093.395-.108.726a10.77 10.77 0 0 0-.789-1.089c0-.016-.015-.016-.03-.016-.016 0-.016 0-.031.016-.016.016-.016.016-.016.032v.031c.294.348.557.71.789 1.09a2.147 2.147 0 0 0-.31-.064c-.123-.015-.247-.047-.37-.078h-.016c-.016 0-.031.015-.031.031v.016c0 .016.015.031.03.031.125.032.264.064.387.08.14.015.263.047.387.094.123.206.232.442.324.663 0 .016.016.016.031.016-.03.063-.046.127-.061.19a2.25 2.25 0 0 1-.542-.206h-.015c-.015 0-.03.016-.03.016v.016c0 .016 0 .032.015.032.17.094.37.157.556.205-.015.063-.03.079-.062.095a.294.294 0 0 1-.154.047.495.495 0 0 1-.217-.063.307.307 0 0 0-.37.031.434.434 0 0 0-.094.269v.079c-.092-.032-.2-.127-.309-.237Zm.14-.648c.03 0 .061.032.061.064 0 .031-.03.063-.062.063-.03 0-.061-.032-.061-.063.015-.032.03-.064.061-.064Zm-.032-.22c0-.032.031-.064.062-.064s.062.032.062.063c0 .032-.03.064-.062.064-.03 0-.062-.032-.062-.064Zm.882 3.315c-.093-.079-.124-.41.015-.695.186.016.371.111.51.237-.046.127-.417.553-.525.458Zm.37-.995c-.03 0-.061-.031-.061-.063 0-.031.03-.063.062-.063.03 0 .061.032.061.063 0 .032-.03.063-.061.063Zm.078.064c.03 0 .062.031.062.063 0 .031-.031.063-.062.063s-.062-.032-.062-.063c.016-.032.031-.063.062-.063Zm-.108.11c0 .032-.031.063-.062.063s-.062-.031-.062-.063c0-.031.031-.063.062-.063.03 0 .062.032.062.063Zm.17.205c-.031 0-.062-.031-.062-.063 0-.031.03-.063.062-.063.03 0 .062.032.062.063 0 .032-.031.063-.062.063Zm.062-.3c0-.031.03-.063.061-.063s.062.032.062.063c0 .032-.03.064-.062.064-.03 0-.061-.032-.061-.064Zm.123.316c-.03 0-.062-.031-.062-.063s.031-.063.062-.063.062.031.062.063c-.015.032-.03.063-.062.063Zm.047-.379c-.078-.11-.201-.237-.31-.22-.247.015-.278.378-.602.394-.155 0-.155-.158-.248-.379-.077-.221-.309-.016-.556-.032-.108 0-.402-.094-.34-.41.061-.3.37-.332.556-.316.186.016.263-.016.263-.268 0-.253.155-.285.263-.221.077.063.17.094.278.094a.485.485 0 0 0 .216-.047c.201-.11.047-.379.34-.6.186-.142.573.142.773.41-.015.016-.03.032-.03.064 0 .031-.016.063-.016.094 0 .095.031.174.077.253a.42.42 0 0 0 .124.11c-.124-.015-.247-.031-.355-.031-.14-.079-.557-.347-.557-.347H5.04c-.016 0-.031 0-.031.015v.016c0 .016 0 .032.015.032.016.016.278.174.448.284a2.53 2.53 0 0 0-.742.174l-.03.015a.696.696 0 0 1-.294-.126c-.078-.047-.155-.095-.232-.126h-.016c-.015 0-.03.016-.03.031v.016c0 .016.015.032.015.032.077.031.155.079.232.126.062.032.123.079.2.11-.2.064-.401.111-.618.111-.061 0-.139 0-.2-.016-.016 0-.031.016-.031.032s.015.032.03.032c.078.015.14.015.217.015.247 0 .495-.047.726-.142a2.307 2.307 0 0 1-.324.442c-.016.016-.016.016-.016.032v.032c0 .015.016.015.031.015.016 0 .016 0 .031-.015.155-.158.278-.348.371-.537.232-.095.464-.143.696-.158-.14.126-.278.268-.387.41v.016c0 .016 0 .032.016.032 0 0 .015.015.03.015.016 0 .032 0 .032-.015.123-.174.278-.332.463-.458.155 0 .31.015.449.063-.016.032-.016.047-.031.079v.016c0 .126.062.236.17.284.03.016.046.047.046.079 0 .016-.015.047-.046.063-.17.11-.356.174-.557.19-.293.031-.433.142-.494.236Zm2.38.916h-.03c-.093 0-.17-.047-.202-.126-.03-.08-.061-.158-.092-.221a.337.337 0 0 1-.078-.206v-.015c0-.016 0-.048.016-.064.015-.015.03-.015.03-.015.032 0 .047.015.078.031l.016.016c.108.095.262.237.432.253.031 0 .078 0 .109-.016-.016.158-.078.332-.279.363Zm.279-.537c-.155.127-.356-.063-.48-.174-.139-.126-.355-.063-.34.158.016.221.356.49.093.664-.263.173-.464-.158-.65-.095-.185.063-.107.22-.17.49-.046.268-.417.347-.602.189a.401.401 0 0 1-.14-.316c0-.11.047-.221.124-.3a.34.34 0 0 0 .124-.268.382.382 0 0 0-.077-.222c-.108-.126-.495 0-.48-.331.016-.142.124-.268.433-.316.217-.016.418-.095.603-.22a.215.215 0 0 0 .108-.175c0-.078-.046-.142-.108-.19-.108-.062-.17-.252 0-.3.279-.094.48 0 .557.08.015.016.046.047.077.095-.03.015-.062.047-.093.063-.108.079-.232.158-.247.316v.015c0 .08.03.158.077.221-.062.064-.123.127-.17.206-.03.031-.37.252-.54.41-.016.016-.016.016-.016.032s0 .016.015.031c0 .016.016.016.031.016.016 0 .016 0 .031-.016.108-.094.263-.205.371-.284-.201.363-.34.774-.371 1.2 0 .016.015.032.03.048.016 0 .032-.016.032-.032.03-.442.185-.853.402-1.232 0 .221.062.427.17.616 0 .016.015.016.03.016h.016c.016 0 .016-.016.016-.032v-.015a1.395 1.395 0 0 1-.17-.648v-.016c.046-.063.092-.126.154-.19l.016.017c.123.126.309.19.556.19.155 0 .31-.017.448-.048h.031c.155.095.232.237.109.347Zm.154-.742c-.015-.095-.046-.19-.077-.284 0-.11-.016-.221-.031-.332a2.968 2.968 0 0 1-.046-.52c0-.017-.016-.032-.047-.032-.03 0-.03.015-.03.031 0 .174.03.348.046.521 0 .032.015.08.015.11a2.408 2.408 0 0 0-.665-.71v-.015a1.6 1.6 0 0 0-.123-.6c0-.016-.016-.016-.031-.016h-.016c-.015.015-.015.015-.015.031v.016c.077.174.108.348.108.521l-.062-.047c-.34-.237-.649-.458-.819-.884 0-.016-.016-.032-.031-.032h-.015c-.016 0-.031.016-.031.032v.015c.185.442.51.695.85.932l.03.016a2.31 2.31 0 0 1-.463.047h-.077c-.016 0-.031.016-.031.032 0 .015.015.031.03.047h.094c.185 0 .355-.032.54-.063.279.205.557.442.727.82-.216-.062-.402-.078-.587-.015-.016 0-.031.016-.031.032v.015c0 .016.015.016.03.016h.016c.155-.063.31-.063.588.032.03.11.061.22.077.332a.456.456 0 0 1-.31.157c-.293.048-.649.08-.85-.11-.37-.363.325-.395.325-.71 0-.317-.464-.332-.757-.222-.34.127-.51-.205-.464-.347.046-.126.386.047.464-.221.077-.237-.17-.316-.464-.458-.294-.142-.217-.41-.093-.584a.4.4 0 0 1 .17-.11c.062-.017.495.283.588.425.092.143.077.08.309.08.232 0 .51.126.54.363.032.236.078.284.45.126.463-.174.525.41.494.647a.854.854 0 0 1-.108.316c-.062.142-.155.332-.217.49.031.063.016.094 0 .11Zm.093 1.5c-.124-.079-.046-.332.077-.458.093.063.17.127.232.221.062.11-.17.332-.31.237Zm.355.458c-.262.063-.602-.095-.262-.174.216-.047.525.11.262.174Zm.232-.158a.636.636 0 0 0-.37-.142c.309-.19.726-.41 1.174-.632a.253.253 0 0 0 .186.08.422.422 0 0 0 .278-.159c.015-.015.046-.031.062-.063a.116.116 0 0 1 .062-.031c.015 0 .046.015.077.079-.51.268-1.005.552-1.469.868Zm.742.363c-.386.142-.834 0-.54-.142.247-.11.911 0 .54.142Zm.124-.252a1.019 1.019 0 0 0-.37-.064c-.094 0-.186.016-.264.032a11.53 11.53 0 0 1 1.36-.758c.063.063.155.11.248.127a13.21 13.21 0 0 0-.974.663Zm1.778.284c-.31-.047.046-.363.65-.3.355.031-.047.379-.65.3Zm.51-.426h-.108a.91.91 0 0 0-.619.252c-.123-.079-.417-.22-.773-.41.17-.11.34-.221.495-.316.402.19.773.379 1.005.474Zm-.804-.837c.016-.048.031-.095.031-.142l.077-.032.109.047a1.154 1.154 0 0 0-.217.127Zm1.732.647c.278.11-.201.3-.433.19-.17-.095.17-.285.433-.19Zm-.201-.11c-.093-.016-.325.015-.402.126 0 0-.526-.237-.866-.41.03-.08.108-.127.185-.143.078-.016.557.253 1.083.427Zm.819.6c.325-.127.556-.222.603-.285.123.063.232.11.355.142a2.334 2.334 0 0 1-.803.142.258.258 0 0 1-.155 0Zm1.19-.285c-.634-.094-2.38-.694-3.23-1.09.061-.047.138-.078.2-.11.928.316 1.979.442 3.216.569-.077.205-.14.41-.186.631Zm.51-.316a1.59 1.59 0 0 1 .201-.252l.201.016s-.386.236-.402.236Zm.959-.915a1.76 1.76 0 0 1-.263.473c-.17.016-.356.016-.526.016-.525 0-1.05-.031-1.576-.095.17-.094.324-.189.494-.3h.279c.525 0 1.066-.031 1.592-.094Zm-.124-.395c-.54.158-.974.221-1.314.205.17-.047.34-.11.526-.158l.108-.031c.015 0 .03-.016.03-.032v-.016c0-.015-.015-.031-.03-.031h-.016l-.108.031c-.262.08-.51.158-.726.221-.109-.015-.217-.063-.325-.11.263-.063.51-.158.758-.253a1.34 1.34 0 0 0 .231-.079c.279.143.572.237.866.253Zm1.206-.868c-.866.442-1.36.6-1.84.568.248-.063.495-.158.727-.284.015-.016.015-.016.015-.032v-.016c0-.015-.015-.015-.03-.015h-.016a2.815 2.815 0 0 1-.928.315.423.423 0 0 1-.231-.126c.293-.095.602-.205.88-.332.124-.031.248-.078.372-.142.216.08.51.142 1.051.064Zm.556-.695c-.649.395-1.004.568-1.375.568h-.062c.139-.047.278-.126.464-.19l.03-.015c.016 0 .031-.016.031-.032v-.015c0-.016-.015-.032-.03-.032h-.016l-.03.016a24.86 24.86 0 0 1-.557.237.277.277 0 0 1-.124-.11c.2-.096.402-.206.587-.332.031-.016.047-.032.078-.048.062-.031.123-.063.185-.11.186.047.371.063.557.063.077.016.17.016.262 0Zm.789-.805c-.433.347-.727.584-1.33.663h-.123c.062-.032.123-.08.2-.127.016-.015.016-.015.016-.031v-.016c0-.016-.015-.016-.03-.016h-.016c-.093.063-.186.11-.263.158-.046-.031-.108-.063-.124-.11.279-.11.557-.237.804-.41.062 0 .14.015.201.015.217-.032.448-.063.665-.126Zm-.572-.095c-.031.016-.077.016-.108.016a.307.307 0 0 1-.17-.048c.17-.095.324-.205.463-.331.016-.016.016-.016.016-.032s0-.016-.016-.031c-.015-.016-.015-.016-.03-.016-.016 0-.016 0-.031.016a3.14 3.14 0 0 1-.464.331c-.016-.016-.016-.047-.016-.063.217-.126.418-.253.603-.41h.093c.216 0 .433-.032.65-.08.216-.047-.418.521-.99.648Zm1.515-1.469c-.48.537-.696.71-.943.758-.031 0-.062.016-.093.016h-.03c.123-.095.262-.205.432-.347.015-.016.015-.016.015-.032s0-.016-.015-.031c-.015-.016-.015-.016-.03-.016-.016 0-.016 0-.032.016-.154.142-.309.268-.479.378a.307.307 0 0 1-.14-.142c.186-.142.356-.3.511-.49.278-.046.541-.094.804-.11Zm-1.299.49a.495.495 0 0 1 .201-.268.934.934 0 0 1 .186-.08c-.124.127-.263.237-.387.348Zm.789-.537c-.031.016-.047.016-.078.016-.092 0-.185-.047-.216-.127a7.466 7.466 0 0 1-.603.616h-.015c-.263.3-.418.41-.572.442-.248.064-.449-.078-.124-.331.185-.142.495-.142.773-.284.185-.174.355-.348.51-.537 0-.11.047-.19.124-.269.247-.252.835-.142 1.082-.457-.51.789-.634.868-.881.931Zm.34-.79H19.2a.24.24 0 0 1-.232-.236c0-.063.031-.127.077-.174.155-.174.68-.079.881-.316-.247.474-.494.695-.695.727 0 0 0-.016 0 0Zm.48-.789c-.202.19-.588-.016-.248-.395.185-.205.448-.284.695-.6-.046.521-.232.806-.448.995ZM1.655 13.437ZM2.768 15.488l-.016-.015.016.015Z"></path><path d="M2.04 14.32c-.015-.048-.046-.095-.061-.127.015.032.046.08.062.127ZM2.613 15.268c.015.015.015.031.031.047-.016-.016-.031-.032-.031-.047ZM1.87 13.94c-.015-.046-.046-.094-.061-.141a.393.393 0 0 0 .061.142ZM1.948 14.13c-.016-.047-.047-.095-.062-.126.03.032.046.079.062.126Z"></path></g><defs><clipPath id="clip0_3552_64061"><path fill="#fff" d="M0 0h128v24H0z"></path></clipPath></defs></svg>