<svg xmlns:xlink="http://www.w3.org/1999/xlink"  xmlns="http://www.w3.org/2000/svg" width="128" height="32" fill="none" viewBox="0 0 128 32" class="SvgIcon_root__AnyvP Footer_azalclubMobile__FRMDA SvgIcon_size_20__yOxOn"><g fill="#fff" clip-path="url(#clip0_42_14065)"><path d="m84.369 0-2.18.057a94.76 94.76 0 0 1-8.146 8.721c-2.957 2.812-5.934 5.335-8.915 7.816C71.652 12.203 78.123 7.288 84.364 0M64.133 17.915c7.703-4.858 14.387-9.797 19.792-14.844l-.58 2.585c-6.391 5.5-12.934 9.287-19.212 12.254v.005Z"></path><path d="M74.048 8.779c29.208-27.745-25.24 23.99 0 0ZM63.001 19.142c7.835-3.778 14.207-7.693 19.943-11.67-.16.703-.316 1.41-.476 2.118-6.51 4.142-13 7.576-19.472 9.552h.005Z"></path><path d="M74.047 8.779c29.207-27.745-25.24 23.99 0 0ZM61.514 20.137c6.976-2.113 13.84-5.292 20.632-9.104-.142.642-.288 1.284-.43 1.92-8.136 4.029-15.028 6.604-20.198 7.184h-.004Z"></path><path d="M74.046 8.779c29.208-27.745-25.24 23.99 0 0ZM60.367 21.076c6.92-1.722 13.967-4.127 21.1-7.01l-.355 1.566c-7.551 2.958-14.542 4.906-20.745 5.444Z"></path><path d="M59.218 21.868c7.056-1.103 14.278-2.853 21.698-5.358-.118.519-.231 1.037-.35 1.556-8.226 2.58-15.245 3.732-21.348 3.802Zm-1.199.745c7.534-.693 14.996-1.844 22.354-3.688-.113.51-.226 1.014-.34 1.519-9.414 2.141-15.976 2.335-22.014 2.17Z"></path><path d="M40.594 24.382c-.5 0-.707-.24-.707-.688V13.043c0-.873 1.377-.873 1.377 0v10.113h6.958c.948 0 .948 1.226 0 1.226h-7.628Zm-12.32-3.118-1.505 2.93c-.335.688-1.561.202-1.226-.538l5.617-11.038c.114-.24.373-.354.614-.354.24 0 .467.114.594.354L37.967 23.6c.481.797-.892 1.264-1.245.538l-1.453-2.877h-6.995v.004Zm3.5-7.014-2.94 5.845h5.864l-2.92-5.845h-.004ZM15.995 23.1h7.944c.877 0 .891 1.226 0 1.282h-9.194c-.726 0-.948-.575-.537-1.075l8.335-9.519h-7.538c-.821 0-.84-1.17 0-1.226h8.858c.764 0 .967.575.538 1.113l-8.41 9.424h.004ZM2.896 21.263l-1.504 2.93c-.335.688-1.562.202-1.227-.538l5.618-11.038c.113-.24.373-.354.613-.354s.467.114.595.354L12.59 23.6c.48.797-.892 1.264-1.246.538L9.892 21.26H2.896v.004Zm3.5-7.014-2.938 5.845H9.32L6.4 14.25h-.005Zm71.845 8.245c-1.647 4.967-6.34 8.562-11.864 8.562-6.886 0-12.49-5.59-12.49-12.453 0-6.863 5.604-12.458 12.49-12.458 2.1 0 4.071.524 5.812 1.434l.448-.391a12.98 12.98 0 0 0-6.26-1.6c-7.193 0-13.047 5.836-13.047 13.01 0 7.175 5.854 13.01 13.047 13.01 5.845 0 10.802-3.85 12.458-9.142l-.6.029h.006Zm-29.236 5.048H0v-.274h49.005v.274Zm0-17.618H0V9.65h49.005v.274ZM115.68 19.75c.731.264 1.995.302 2.934-1.293l.283-.49c1.165-2.024-.826-2.345-1.958-.41l-1.259 2.193Zm4.137 3.245 1.221-.637s.264.712.92.712c1.863 0 1.448-3.636 2.222-5.665-.698.92-1.675 2.288-2.783 3.562-1.618 1.877-3.816 3.599-6.038 3.599-1.566 0-2.557-.878-2.651-2.09-1.236 1.198-2.523 2.09-3.684 2.09-1.16 0-1.736-.665-1.707-1.571-1.057.93-2.137 1.57-3.123 1.57-1.58 0-2.165-1.33-1.335-2.773l3.929-6.788h1.958l-4.194 7.293c-.452.769-.207 1.07.227 1.07.863 0 2.236-1.292 3.646-2.924l.132-.151 5.448-9.415h1.958l-6.585 11.42c-.453.769-.208 1.07.226 1.07.864 0 2.236-1.292 3.647-2.924l.113-.132 1.896-3.245c.83-1.425 2.09-2.25 3.67-2.25s2.613 1.349 1.561 3.15l-.283.491c-1.467 2.533-3.835 2.774-5.099 2.25l-.189.34c-.901 1.575-.188 2.325 1.015 2.325 1.372 0 3.179-1.292 4.589-2.924l.132-.151c1.769-2.062 3.538-4.613 4.345-5.722l1.467.788c-1.203 2.495-1.071 5.344-1.694 7.203a12.252 12.252 0 0 0 2.349-2.118l.132-.151c.283.075.623.372.736.674-1.467 1.708-3.443 3.279-5.434 3.543-.019 0-.038.019-.056.019-.189.018-.359.037-.548.037-1.787 0-2.146-1.575-2.146-1.575h.01Z"></path><path d="M108.987 11.746c.641 0 1.146.505 1.146 1.142 0 .636-.509 1.127-1.146 1.127a1.107 1.107 0 0 1-1.128-1.127c0-.642.486-1.142 1.128-1.142ZM103.671 13.264c.938-1.614-.812-2.024-4.515 3.188l-.019.02-4.551 7.914H92.59l6.43-11.118c.92-1.594-.77-2.005-4.401 3.02l-4.665 8.098h-2.015l6.694-11.59c-2.109 1.071-5.434 1.128-6.335 2.68-.958 1.632.731 2.325.731 2.325l-.731 1.26c-1.297-.505-2.802-2.085-1.543-4.274 1.6-2.774 5.906-1.783 9.35-4.5l.995 1.708-.528.92c1.24-1.557 2.349-2.213 3.367-2.213 1.019 0 1.826.995 1.147 2.363 1.297-1.65 2.443-2.363 3.5-2.363 1.056 0 1.901 1.071 1.052 2.552l-7.241 12.51c-.283.466-.396 1.405.264 1.726l-.83 1.425c-1.618-.807-1.694-2.609-.901-3.977l6.731-11.665.01-.01Z"></path></g><defs><clipPath id="clip0_42_14065"><path fill="#fff" d="M0 0h128v31.613H0z"></path></clipPath></defs></svg>